<svg xmlns="http://www.w3.org/2000/svg" xmlns:xlink="http://www.w3.org/1999/xlink" width="1238" height="456" viewBox="0 0 1238 456">
  <defs>
    <clipPath id="clip-path">
      <rect id="SVGID" width="1238" height="456" rx="10" transform="translate(1238 456) rotate(180)" fill="none"/>
    </clipPath>
  </defs>
  <g id="Grupo_902391" data-name="Grupo 902391" transform="translate(-181 -1227.75)">
    <g id="Grupo_875368" data-name="Grupo 875368" transform="translate(181 1227.75)">
      <rect id="Rectángulo_293213" data-name="Rectángulo 293213" width="1238" height="456" rx="10" transform="translate(1238 456) rotate(180)" fill="#add7d3"/>
      <g id="Grupo_875367" data-name="Grupo 875367">
        <g id="Grupo_875366" data-name="Grupo 875366" clip-path="url(#clip-path)">
          <path id="Trazado_117917" data-name="Trazado 117917" d="M176.226,1714.616V1331.882c35.68,19.979,59.342,51.4,76.153,83.789,4.248,8.182,8.13,16.479,11.915,25.017,11.206,25.28,20.826,51.266,34.057,76.113,11.776,22.115,27.014,43.854,50.557,58.638,21.912,13.76,49.289,20.432,76.3,25.643,71.917,13.876,148.374,20.08,211.225,51.508,31.078,15.539,57.438,37.034,76.841,62.026Z" transform="translate(-181 -1247.876)" fill="#81f0ae" opacity="0.2" style="mix-blend-mode: overlay;isolation: isolate"/>
          <g id="Grupo_875329" data-name="Grupo 875329" transform="translate(14.005 164.489)">
            <g id="Grupo_875323" data-name="Grupo 875323">
              <path id="Trazado_117918" data-name="Trazado 117918" d="M248.539,1433.073a1.808,1.808,0,1,1-1.767-1.425A1.625,1.625,0,0,1,248.539,1433.073Z" transform="translate(-245.005 -1431.648)" fill="#fff"/>
              <path id="Trazado_117919" data-name="Trazado 117919" d="M268.333,1433.073a1.808,1.808,0,1,1-1.767-1.425A1.625,1.625,0,0,1,268.333,1433.073Z" transform="translate(-245.005 -1431.648)" fill="#fff"/>
              <path id="Trazado_117920" data-name="Trazado 117920" d="M288.128,1433.073a1.809,1.809,0,1,1-1.768-1.425A1.626,1.626,0,0,1,288.128,1433.073Z" transform="translate(-245.005 -1431.648)" fill="#fff"/>
              <path id="Trazado_117921" data-name="Trazado 117921" d="M307.922,1433.073a1.809,1.809,0,1,1-1.768-1.425A1.626,1.626,0,0,1,307.922,1433.073Z" transform="translate(-245.005 -1431.648)" fill="#fff"/>
            </g>
            <g id="Grupo_875324" data-name="Grupo 875324" transform="translate(0 14.828)">
              <path id="Trazado_117922" data-name="Trazado 117922" d="M248.539,1451.453a1.808,1.808,0,1,1-1.767-1.426A1.625,1.625,0,0,1,248.539,1451.453Z" transform="translate(-245.005 -1450.028)" fill="#fff"/>
              <path id="Trazado_117923" data-name="Trazado 117923" d="M268.333,1451.453a1.808,1.808,0,1,1-1.767-1.426A1.624,1.624,0,0,1,268.333,1451.453Z" transform="translate(-245.005 -1450.028)" fill="#fff"/>
              <path id="Trazado_117924" data-name="Trazado 117924" d="M288.128,1451.453a1.809,1.809,0,1,1-1.768-1.426A1.625,1.625,0,0,1,288.128,1451.453Z" transform="translate(-245.005 -1450.028)" fill="#fff"/>
              <path id="Trazado_117925" data-name="Trazado 117925" d="M307.922,1451.453a1.809,1.809,0,1,1-1.768-1.426A1.625,1.625,0,0,1,307.922,1451.453Z" transform="translate(-245.005 -1450.028)" fill="#fff"/>
            </g>
            <g id="Grupo_875325" data-name="Grupo 875325" transform="translate(0 29.655)">
              <path id="Trazado_117926" data-name="Trazado 117926" d="M248.539,1469.834a1.808,1.808,0,1,1-1.767-1.426A1.624,1.624,0,0,1,248.539,1469.834Z" transform="translate(-245.005 -1468.408)" fill="#fff"/>
              <path id="Trazado_117927" data-name="Trazado 117927" d="M268.333,1469.834a1.808,1.808,0,1,1-1.767-1.426A1.624,1.624,0,0,1,268.333,1469.834Z" transform="translate(-245.005 -1468.408)" fill="#fff"/>
              <path id="Trazado_117928" data-name="Trazado 117928" d="M288.128,1469.834a1.808,1.808,0,1,1-1.768-1.426A1.625,1.625,0,0,1,288.128,1469.834Z" transform="translate(-245.005 -1468.408)" fill="#fff"/>
              <path id="Trazado_117929" data-name="Trazado 117929" d="M307.922,1469.834a1.808,1.808,0,1,1-1.768-1.426A1.625,1.625,0,0,1,307.922,1469.834Z" transform="translate(-245.005 -1468.408)" fill="#fff"/>
            </g>
            <g id="Grupo_875326" data-name="Grupo 875326" transform="translate(0 44.483)">
              <path id="Trazado_117930" data-name="Trazado 117930" d="M248.539,1488.214a1.808,1.808,0,1,1-1.767-1.426A1.624,1.624,0,0,1,248.539,1488.214Z" transform="translate(-245.005 -1486.788)" fill="#fff"/>
              <path id="Trazado_117931" data-name="Trazado 117931" d="M268.333,1488.214a1.808,1.808,0,1,1-1.767-1.426A1.624,1.624,0,0,1,268.333,1488.214Z" transform="translate(-245.005 -1486.788)" fill="#fff"/>
              <path id="Trazado_117932" data-name="Trazado 117932" d="M288.128,1488.214a1.808,1.808,0,1,1-1.768-1.426A1.625,1.625,0,0,1,288.128,1488.214Z" transform="translate(-245.005 -1486.788)" fill="#fff"/>
              <path id="Trazado_117933" data-name="Trazado 117933" d="M307.922,1488.214a1.808,1.808,0,1,1-1.768-1.426A1.625,1.625,0,0,1,307.922,1488.214Z" transform="translate(-245.005 -1486.788)" fill="#fff"/>
            </g>
            <g id="Grupo_875327" data-name="Grupo 875327" transform="translate(0 59.311)">
              <path id="Trazado_117934" data-name="Trazado 117934" d="M248.539,1506.594a1.808,1.808,0,1,1-1.767-1.426A1.624,1.624,0,0,1,248.539,1506.594Z" transform="translate(-245.005 -1505.169)" fill="#fff"/>
              <path id="Trazado_117935" data-name="Trazado 117935" d="M268.333,1506.594a1.808,1.808,0,1,1-1.767-1.426A1.624,1.624,0,0,1,268.333,1506.594Z" transform="translate(-245.005 -1505.169)" fill="#fff"/>
              <path id="Trazado_117936" data-name="Trazado 117936" d="M288.127,1506.594a1.808,1.808,0,1,1-1.767-1.426A1.624,1.624,0,0,1,288.127,1506.594Z" transform="translate(-245.005 -1505.169)" fill="#fff"/>
              <path id="Trazado_117937" data-name="Trazado 117937" d="M307.922,1506.594a1.809,1.809,0,1,1-1.768-1.426A1.625,1.625,0,0,1,307.922,1506.594Z" transform="translate(-245.005 -1505.169)" fill="#fff"/>
            </g>
            <g id="Grupo_875328" data-name="Grupo 875328" transform="translate(0 74.139)">
              <path id="Trazado_117938" data-name="Trazado 117938" d="M248.539,1524.975a1.808,1.808,0,1,1-1.767-1.426A1.624,1.624,0,0,1,248.539,1524.975Z" transform="translate(-245.005 -1523.549)" fill="#fff"/>
              <path id="Trazado_117939" data-name="Trazado 117939" d="M268.333,1524.975a1.808,1.808,0,1,1-1.767-1.426A1.624,1.624,0,0,1,268.333,1524.975Z" transform="translate(-245.005 -1523.549)" fill="#fff"/>
              <ellipse id="Elipse_4858" data-name="Elipse 4858" cx="1.767" cy="1.426" rx="1.767" ry="1.426" transform="translate(39.588 0)" fill="#fff"/>
              <ellipse id="Elipse_4859" data-name="Elipse 4859" cx="1.767" cy="1.426" rx="1.767" ry="1.426" transform="translate(59.382 0)" fill="#fff"/>
            </g>
          </g>
          <g id="Grupo_875334" data-name="Grupo 875334" transform="translate(-65.142 67.566)">
            <g id="Grupo_875333" data-name="Grupo 875333" opacity="0.5" style="mix-blend-mode: multiply;isolation: isolate">
              <g id="Grupo_875330" data-name="Grupo 875330" transform="translate(5.595 4.514)" opacity="0.15" style="mix-blend-mode: multiply;isolation: isolate">
                <path id="Trazado_117940" data-name="Trazado 117940" d="M181.865,1429.217c-33.312,0-60.412-25.148-60.412-56.059s27.1-56.059,60.412-56.059,60.412,25.148,60.412,56.059S215.176,1429.217,181.865,1429.217Zm0-102.293c-27.473,0-49.823,20.74-49.823,46.234s22.35,46.233,49.823,46.233,49.823-20.74,49.823-46.233S209.338,1326.923,181.865,1326.923Z" transform="translate(-121.453 -1317.098)" fill="#072d1a"/>
              </g>
              <g id="Grupo_875332" data-name="Grupo 875332">
                <g id="Grupo_875331" data-name="Grupo 875331">
                  <path id="Trazado_117941" data-name="Trazado 117941" d="M176.27,1423.621c-33.312,0-60.412-25.148-60.412-56.06s27.1-56.058,60.412-56.058,60.411,25.147,60.411,56.058S209.581,1423.621,176.27,1423.621Zm0-102.293c-27.474,0-49.824,20.74-49.824,46.233S148.8,1413.8,176.27,1413.8s49.823-20.741,49.823-46.234S203.742,1321.328,176.27,1321.328Z" transform="translate(-115.858 -1311.503)" fill="#efefef"/>
                </g>
              </g>
            </g>
          </g>
          <g id="Grupo_875347" data-name="Grupo 875347" transform="translate(877.082 -13.95)">
            <path id="Trazado_117942" data-name="Trazado 117942" d="M1105.847,1262.22c-15.041-15.048-33.622-27.838-47.765-43.331h381.443V1518.85q-3.9-2.474-7.925-4.814a239.921,239.921,0,0,0-33.12-15.918q-1.963-.766-3.947-1.5c-59.486-22.04-128.432-22.331-188.436-43.437-20.313-7.145-40.3-17.412-50.363-33.338-12.262-19.4-7.339-42.554-7.846-64.328C1147.1,1321.823,1132.066,1288.452,1105.847,1262.22Z" transform="translate(-1058.082 -1212.087)" fill="#81f0ae" opacity="0.2" style="mix-blend-mode: overlay;isolation: isolate"/>
            <path id="Trazado_117943" data-name="Trazado 117943" d="M1446.351,1217.593v123.088c-22.972-.453-45.311,5.971-68.124,8.468-23.339,2.555-50.29-.273-64.656-15.33-12.813-13.43-11.609-32.013-15.938-48.6-5.691-21.807-22.257-41.636-45.177-54.075-8.694-4.719-18.259-8.43-26.556-13.554Z" transform="translate(-1058.082 -1211.836)" fill="#efefef" opacity="0.5" style="mix-blend-mode: multiply;isolation: isolate"/>
            <g id="Grupo_875341" data-name="Grupo 875341" transform="translate(316.084 40.811)">
              <g id="Grupo_875335" data-name="Grupo 875335" transform="translate(0 41.774)">
                <path id="Trazado_117944" data-name="Trazado 117944" d="M1376.158,1313.632a1.019,1.019,0,1,0-1,.8A.915.915,0,0,0,1376.158,1313.632Z" transform="translate(-1374.166 -1312.829)" fill="#fff"/>
                <path id="Trazado_117945" data-name="Trazado 117945" d="M1387.311,1313.632a1.019,1.019,0,1,0-1,.8A.916.916,0,0,0,1387.311,1313.632Z" transform="translate(-1374.166 -1312.829)" fill="#fff"/>
                <path id="Trazado_117946" data-name="Trazado 117946" d="M1398.464,1313.632a1.018,1.018,0,1,0-.995.8A.915.915,0,0,0,1398.464,1313.632Z" transform="translate(-1374.166 -1312.829)" fill="#fff"/>
                <path id="Trazado_117947" data-name="Trazado 117947" d="M1409.618,1313.632a1.019,1.019,0,1,0-1,.8A.916.916,0,0,0,1409.618,1313.632Z" transform="translate(-1374.166 -1312.829)" fill="#fff"/>
              </g>
              <g id="Grupo_875336" data-name="Grupo 875336" transform="translate(0 33.42)">
                <path id="Trazado_117948" data-name="Trazado 117948" d="M1376.158,1303.276a1.019,1.019,0,1,0-1,.8A.915.915,0,0,0,1376.158,1303.276Z" transform="translate(-1374.166 -1302.473)" fill="#fff"/>
                <path id="Trazado_117949" data-name="Trazado 117949" d="M1387.311,1303.276a1.019,1.019,0,1,0-1,.8A.915.915,0,0,0,1387.311,1303.276Z" transform="translate(-1374.166 -1302.473)" fill="#fff"/>
                <path id="Trazado_117950" data-name="Trazado 117950" d="M1398.464,1303.276a1.018,1.018,0,1,0-.995.8A.915.915,0,0,0,1398.464,1303.276Z" transform="translate(-1374.166 -1302.473)" fill="#fff"/>
                <path id="Trazado_117951" data-name="Trazado 117951" d="M1409.618,1303.276a1.019,1.019,0,1,0-1,.8A.915.915,0,0,0,1409.618,1303.276Z" transform="translate(-1374.166 -1302.473)" fill="#fff"/>
              </g>
              <g id="Grupo_875337" data-name="Grupo 875337" transform="translate(0 25.065)">
                <path id="Trazado_117952" data-name="Trazado 117952" d="M1376.158,1292.92a1.019,1.019,0,1,0-1,.8A.916.916,0,0,0,1376.158,1292.92Z" transform="translate(-1374.166 -1292.116)" fill="#fff"/>
                <path id="Trazado_117953" data-name="Trazado 117953" d="M1387.311,1292.92a1.019,1.019,0,1,0-1,.8A.916.916,0,0,0,1387.311,1292.92Z" transform="translate(-1374.166 -1292.116)" fill="#fff"/>
                <path id="Trazado_117954" data-name="Trazado 117954" d="M1398.464,1292.92a1.018,1.018,0,1,0-.995.8A.915.915,0,0,0,1398.464,1292.92Z" transform="translate(-1374.166 -1292.116)" fill="#fff"/>
                <path id="Trazado_117955" data-name="Trazado 117955" d="M1409.618,1292.92a1.019,1.019,0,1,0-1,.8A.916.916,0,0,0,1409.618,1292.92Z" transform="translate(-1374.166 -1292.116)" fill="#fff"/>
              </g>
              <g id="Grupo_875338" data-name="Grupo 875338" transform="translate(0 16.71)">
                <path id="Trazado_117956" data-name="Trazado 117956" d="M1376.158,1282.563a1.019,1.019,0,1,0-1,.8A.915.915,0,0,0,1376.158,1282.563Z" transform="translate(-1374.166 -1281.76)" fill="#fff"/>
                <path id="Trazado_117957" data-name="Trazado 117957" d="M1387.311,1282.563a1.019,1.019,0,1,0-1,.8A.915.915,0,0,0,1387.311,1282.563Z" transform="translate(-1374.166 -1281.76)" fill="#fff"/>
                <path id="Trazado_117958" data-name="Trazado 117958" d="M1398.464,1282.563a1.018,1.018,0,1,0-.995.8A.915.915,0,0,0,1398.464,1282.563Z" transform="translate(-1374.166 -1281.76)" fill="#fff"/>
                <path id="Trazado_117959" data-name="Trazado 117959" d="M1409.618,1282.563a1.019,1.019,0,1,0-1,.8A.915.915,0,0,0,1409.618,1282.563Z" transform="translate(-1374.166 -1281.76)" fill="#fff"/>
              </g>
              <g id="Grupo_875339" data-name="Grupo 875339" transform="translate(0 8.355)">
                <path id="Trazado_117960" data-name="Trazado 117960" d="M1376.158,1272.207a1.019,1.019,0,1,0-1,.8A.915.915,0,0,0,1376.158,1272.207Z" transform="translate(-1374.166 -1271.403)" fill="#fff"/>
                <path id="Trazado_117961" data-name="Trazado 117961" d="M1387.311,1272.207a1.019,1.019,0,1,0-1,.8A.916.916,0,0,0,1387.311,1272.207Z" transform="translate(-1374.166 -1271.403)" fill="#fff"/>
                <path id="Trazado_117962" data-name="Trazado 117962" d="M1398.464,1272.207a1.018,1.018,0,1,0-.995.8A.915.915,0,0,0,1398.464,1272.207Z" transform="translate(-1374.166 -1271.403)" fill="#fff"/>
                <path id="Trazado_117963" data-name="Trazado 117963" d="M1409.618,1272.207a1.019,1.019,0,1,0-1,.8A.916.916,0,0,0,1409.618,1272.207Z" transform="translate(-1374.166 -1271.403)" fill="#fff"/>
              </g>
              <g id="Grupo_875340" data-name="Grupo 875340">
                <path id="Trazado_117964" data-name="Trazado 117964" d="M1376.158,1261.849a1.019,1.019,0,1,0-1,.8A.915.915,0,0,0,1376.158,1261.849Z" transform="translate(-1374.166 -1261.046)" fill="#fff"/>
                <path id="Trazado_117965" data-name="Trazado 117965" d="M1387.311,1261.849a1.019,1.019,0,1,0-1,.8A.916.916,0,0,0,1387.311,1261.849Z" transform="translate(-1374.166 -1261.046)" fill="#fff"/>
                <path id="Trazado_117966" data-name="Trazado 117966" d="M1398.464,1261.849a1.018,1.018,0,1,0-.995.8A.915.915,0,0,0,1398.464,1261.849Z" transform="translate(-1374.166 -1261.046)" fill="#fff"/>
                <path id="Trazado_117967" data-name="Trazado 117967" d="M1409.618,1261.849a1.019,1.019,0,1,0-1,.8A.916.916,0,0,0,1409.618,1261.849Z" transform="translate(-1374.166 -1261.046)" fill="#fff"/>
              </g>
            </g>
            <g id="Grupo_875346" data-name="Grupo 875346" transform="translate(257.087 399.536)">
              <g id="Grupo_875345" data-name="Grupo 875345">
                <g id="Grupo_875344" data-name="Grupo 875344">
                  <g id="Grupo_875342" data-name="Grupo 875342" transform="translate(2.41 1.944)" opacity="0.15" style="mix-blend-mode: multiply;isolation: isolate">
                    <path id="Trazado_117968" data-name="Trazado 117968" d="M1446.222,1915.683c70.933,0,128.642-46.555,128.642-103.779s-57.709-103.779-128.642-103.779-128.643,46.555-128.643,103.779S1375.288,1915.683,1446.222,1915.683Zm0-189.367c58.5,0,106.094,38.394,106.094,85.588s-47.593,85.589-106.094,85.589-106.1-38.394-106.1-85.589S1387.72,1726.316,1446.222,1726.316Z" transform="translate(-1317.579 -1708.125)" fill="#072d1a"/>
                  </g>
                  <g id="Grupo_875343" data-name="Grupo 875343">
                    <path id="Trazado_117969" data-name="Trazado 117969" d="M1443.812,1913.273c70.933,0,128.642-46.555,128.642-103.778s-57.709-103.779-128.642-103.779-128.643,46.556-128.643,103.779S1372.878,1913.273,1443.812,1913.273Zm0-189.367c58.5,0,106.094,38.394,106.094,85.588s-47.593,85.589-106.094,85.589-106.095-38.394-106.095-85.589S1385.31,1723.906,1443.812,1723.906Z" transform="translate(-1315.169 -1705.715)" fill="#fff"/>
                  </g>
                </g>
              </g>
            </g>
            <path id="Trazado_117970" data-name="Trazado 117970" d="M1483.913,1324.152A38.6,38.6,0,0,0,1467,1311.619c-15.062-5.76-32.911-2.542-48.648,1.891s-31.748,10.077-48.347,8.853c-16.84-1.242-31.979-9.658-42.214-20.518s-16.1-23.993-20.3-37.208c-2.206-6.941-4.018-14.022-7.642-20.564-6.667-12.038-19.339-21.63-34.144-27.215s-31.612-7.307-47.872-5.971" transform="translate(-1058.082 -1210.457)" fill="none" stroke="#fff" stroke-miterlimit="10" stroke-width="0.501"/>
          </g>
          <g id="Grupo_875360" data-name="Grupo 875360" transform="translate(-77.512 15.091)">
            <path id="Trazado_117971" data-name="Trazado 117971" d="M168.341,1757.973V1540.308c27.6,2.5,50.855,18.781,65.684,37.77,14.963,19.163,23.057,41.183,33.137,62.321s22.959,42.33,44.7,56.662c27.115,17.875,63.951,22.544,94.4,36.5a137.547,137.547,0,0,1,28.459,17.451q4.192,3.345,8.029,6.964Z" transform="translate(-103.488 -1303.251)" fill="#efefef" opacity="0.5" style="mix-blend-mode: multiply;isolation: isolate"/>
            <g id="Grupo_875354" data-name="Grupo 875354" transform="translate(105.609 404.192)">
              <g id="Grupo_875348" data-name="Grupo 875348">
                <path id="Trazado_117972" data-name="Trazado 117972" d="M210.244,1749.336a.947.947,0,1,0-1.147-.925A1.055,1.055,0,0,0,210.244,1749.336Z" transform="translate(-209.097 -1747.485)" fill="#fff"/>
                <path id="Trazado_117973" data-name="Trazado 117973" d="M210.244,1762.182a.947.947,0,1,0-1.147-.925A1.055,1.055,0,0,0,210.244,1762.182Z" transform="translate(-209.097 -1749.968)" fill="#fff"/>
                <path id="Trazado_117974" data-name="Trazado 117974" d="M210.244,1775.03a.947.947,0,1,0-1.147-.925A1.055,1.055,0,0,0,210.244,1775.03Z" transform="translate(-209.097 -1752.451)" fill="#fff"/>
                <path id="Trazado_117975" data-name="Trazado 117975" d="M210.244,1787.877a.947.947,0,1,0-1.147-.925A1.054,1.054,0,0,0,210.244,1787.877Z" transform="translate(-209.097 -1754.934)" fill="#fff"/>
              </g>
              <g id="Grupo_875349" data-name="Grupo 875349" transform="translate(11.929)">
                <path id="Trazado_117976" data-name="Trazado 117976" d="M222.173,1749.336a.947.947,0,1,0-1.147-.925A1.055,1.055,0,0,0,222.173,1749.336Z" transform="translate(-221.026 -1747.485)" fill="#fff"/>
                <path id="Trazado_117977" data-name="Trazado 117977" d="M222.173,1762.182a.947.947,0,1,0-1.147-.925A1.055,1.055,0,0,0,222.173,1762.182Z" transform="translate(-221.026 -1749.968)" fill="#fff"/>
                <path id="Trazado_117978" data-name="Trazado 117978" d="M222.173,1775.03a.947.947,0,1,0-1.147-.925A1.055,1.055,0,0,0,222.173,1775.03Z" transform="translate(-221.026 -1752.451)" fill="#fff"/>
                <path id="Trazado_117979" data-name="Trazado 117979" d="M222.173,1787.877a.947.947,0,1,0-1.147-.925A1.055,1.055,0,0,0,222.173,1787.877Z" transform="translate(-221.026 -1754.934)" fill="#fff"/>
              </g>
              <g id="Grupo_875350" data-name="Grupo 875350" transform="translate(23.859)">
                <path id="Trazado_117980" data-name="Trazado 117980" d="M234.1,1749.336a.947.947,0,1,0-1.147-.925A1.055,1.055,0,0,0,234.1,1749.336Z" transform="translate(-232.956 -1747.485)" fill="#fff"/>
                <path id="Trazado_117981" data-name="Trazado 117981" d="M234.1,1762.182a.947.947,0,1,0-1.147-.925A1.055,1.055,0,0,0,234.1,1762.182Z" transform="translate(-232.956 -1749.968)" fill="#fff"/>
                <path id="Trazado_117982" data-name="Trazado 117982" d="M234.1,1775.03a.947.947,0,1,0-1.147-.925A1.055,1.055,0,0,0,234.1,1775.03Z" transform="translate(-232.956 -1752.451)" fill="#fff"/>
                <path id="Trazado_117983" data-name="Trazado 117983" d="M234.1,1787.877a.947.947,0,1,0-1.147-.925A1.054,1.054,0,0,0,234.1,1787.877Z" transform="translate(-232.956 -1754.934)" fill="#fff"/>
              </g>
              <g id="Grupo_875351" data-name="Grupo 875351" transform="translate(35.788)">
                <path id="Trazado_117984" data-name="Trazado 117984" d="M246.032,1749.336a.947.947,0,1,0-1.147-.925A1.054,1.054,0,0,0,246.032,1749.336Z" transform="translate(-244.885 -1747.485)" fill="#fff"/>
                <path id="Trazado_117985" data-name="Trazado 117985" d="M246.032,1762.182a.947.947,0,1,0-1.147-.925A1.054,1.054,0,0,0,246.032,1762.182Z" transform="translate(-244.885 -1749.968)" fill="#fff"/>
                <path id="Trazado_117986" data-name="Trazado 117986" d="M246.032,1775.03a.947.947,0,1,0-1.147-.925A1.054,1.054,0,0,0,246.032,1775.03Z" transform="translate(-244.885 -1752.451)" fill="#fff"/>
                <path id="Trazado_117987" data-name="Trazado 117987" d="M246.032,1787.877a.947.947,0,1,0-1.147-.925A1.054,1.054,0,0,0,246.032,1787.877Z" transform="translate(-244.885 -1754.934)" fill="#fff"/>
              </g>
              <g id="Grupo_875352" data-name="Grupo 875352" transform="translate(47.718)">
                <path id="Trazado_117988" data-name="Trazado 117988" d="M257.962,1749.336a.947.947,0,1,0-1.147-.925A1.055,1.055,0,0,0,257.962,1749.336Z" transform="translate(-256.815 -1747.485)" fill="#fff"/>
                <path id="Trazado_117989" data-name="Trazado 117989" d="M257.962,1762.182a.947.947,0,1,0-1.147-.925A1.055,1.055,0,0,0,257.962,1762.182Z" transform="translate(-256.815 -1749.968)" fill="#fff"/>
                <path id="Trazado_117990" data-name="Trazado 117990" d="M257.962,1775.03a.947.947,0,1,0-1.147-.925A1.055,1.055,0,0,0,257.962,1775.03Z" transform="translate(-256.815 -1752.451)" fill="#fff"/>
                <path id="Trazado_117991" data-name="Trazado 117991" d="M257.962,1787.877a.947.947,0,1,0-1.147-.925A1.054,1.054,0,0,0,257.962,1787.877Z" transform="translate(-256.815 -1754.934)" fill="#fff"/>
              </g>
              <g id="Grupo_875353" data-name="Grupo 875353" transform="translate(59.647)">
                <path id="Trazado_117992" data-name="Trazado 117992" d="M269.891,1749.336a.947.947,0,1,0-1.147-.925A1.054,1.054,0,0,0,269.891,1749.336Z" transform="translate(-268.744 -1747.485)" fill="#fff"/>
                <path id="Trazado_117993" data-name="Trazado 117993" d="M269.891,1762.182a.947.947,0,1,0-1.147-.925A1.054,1.054,0,0,0,269.891,1762.182Z" transform="translate(-268.744 -1749.968)" fill="#fff"/>
                <path id="Trazado_117994" data-name="Trazado 117994" d="M269.891,1775.03a.947.947,0,1,0-1.147-.925A1.054,1.054,0,0,0,269.891,1775.03Z" transform="translate(-268.744 -1752.451)" fill="#fff"/>
                <path id="Trazado_117995" data-name="Trazado 117995" d="M269.891,1787.877a.947.947,0,1,0-1.147-.925A1.054,1.054,0,0,0,269.891,1787.877Z" transform="translate(-268.744 -1754.934)" fill="#fff"/>
              </g>
            </g>
            <g id="Grupo_875359" data-name="Grupo 875359" transform="translate(89.725)">
              <g id="Grupo_875358" data-name="Grupo 875358">
                <g id="Grupo_875357" data-name="Grupo 875357">
                  <g id="Grupo_875355" data-name="Grupo 875355" transform="translate(2.505 2.021)" opacity="0.15" style="mix-blend-mode: multiply;isolation: isolate">
                    <path id="Trazado_117996" data-name="Trazado 117996" d="M273.757,1694.8c14.909,0,27.039-11.173,27.039-24.908s-12.13-24.907-27.039-24.907-27.039,11.173-27.039,24.907S258.847,1694.8,273.757,1694.8Zm0-45.45c12.3,0,22.3,9.215,22.3,20.542s-10,20.543-22.3,20.543-22.3-9.215-22.3-20.543S261.46,1649.349,273.757,1649.349Z" transform="translate(-246.718 -1644.983)" fill="#072d1a"/>
                  </g>
                  <g id="Grupo_875356" data-name="Grupo 875356">
                    <path id="Trazado_117997" data-name="Trazado 117997" d="M271.252,1692.294c14.91,0,27.039-11.174,27.039-24.908s-12.129-24.908-27.039-24.908-27.039,11.174-27.039,24.908S256.343,1692.294,271.252,1692.294Zm0-45.451c12.3,0,22.3,9.216,22.3,20.542s-10,20.543-22.3,20.543-22.3-9.216-22.3-20.543S258.956,1646.844,271.252,1646.844Z" transform="translate(-244.213 -1642.478)" fill="#fff"/>
                  </g>
                </g>
              </g>
            </g>
            <path id="Trazado_117998" data-name="Trazado 117998" d="M383.1,1771.771c-.8-15.7-10.645-30.945-26.128-40.476-18.193-11.2-41.925-14.053-64.286-17.973s-46.086-10.218-59.146-25.377c-10.762-12.492-12.137-28.561-13.154-43.752q-1.683-25.119-3.364-50.236c-1.287-19.213-2.608-38.6-8.97-57.145s-18.261-36.427-37.209-48.113-45.652-16.151-67.356-8.173" transform="translate(-103.488 -1290.918)" fill="none" stroke="#fff" stroke-miterlimit="10" stroke-width="0.644"/>
          </g>
          <path id="Trazado_117999" data-name="Trazado 117999" d="M1484.927,1477.433c-8.285-12.414-24.088-21.8-41.173-24.765-16.556-2.877-36.2.043-49.949,8.02-6.476,3.756-11.532,8.872-16.226,14.074-10.184,11.284-19.167,23.382-31.231,33.388s-28.021,17.933-45.322,18.067" transform="translate(-181 -1271.012)" fill="none" stroke="#fff" stroke-miterlimit="10" stroke-width="0.572"/>
          <g id="Grupo_875365" data-name="Grupo 875365" transform="translate(1180.104 217.238)">
            <g id="Grupo_875364" data-name="Grupo 875364" opacity="0.5" style="mix-blend-mode: multiply;isolation: isolate">
              <g id="Grupo_875361" data-name="Grupo 875361" transform="translate(6.256 5.047)" opacity="0.15" style="mix-blend-mode: multiply;isolation: isolate">
                <path id="Trazado_118000" data-name="Trazado 118000" d="M1442.808,1625.022c-41.6,0-75.448-27.3-75.448-60.866s33.846-60.866,75.448-60.866,75.448,27.3,75.448,60.866S1484.41,1625.022,1442.808,1625.022Zm0-111.063c-34.311,0-62.223,22.518-62.223,50.2s27.912,50.2,62.223,50.2,62.224-22.518,62.224-50.2S1477.119,1513.959,1442.808,1513.959Z" transform="translate(-1367.36 -1503.291)" fill="#072d1a"/>
              </g>
              <g id="Grupo_875363" data-name="Grupo 875363">
                <g id="Grupo_875362" data-name="Grupo 875362">
                  <path id="Trazado_118001" data-name="Trazado 118001" d="M1436.552,1618.766c-41.6,0-75.448-27.3-75.448-60.866s33.846-60.866,75.448-60.866S1512,1524.339,1512,1557.9,1478.154,1618.766,1436.552,1618.766Zm0-111.063c-34.311,0-62.224,22.518-62.224,50.2s27.913,50.2,62.224,50.2,62.224-22.518,62.224-50.2S1470.863,1507.7,1436.552,1507.7Z" transform="translate(-1361.104 -1497.035)" fill="#efefef"/>
                </g>
              </g>
            </g>
          </g>
        </g>
      </g>
    </g>
  </g>
</svg>
