<svg xmlns="http://www.w3.org/2000/svg" width="210.792" height="212.094" viewBox="0 0 210.792 212.094">
  <g id="Grupo_913636" data-name="Grupo 913636" transform="translate(4791.792 -2263)">
    <g id="Grupo_913627" data-name="Grupo 913627" transform="translate(-4799.792 2255.444)">
      <path id="blob_3_" data-name="blob(3)" d="M152.188,14.652c16.391,46,1.586,107.156-31.9,127.952S34.81,143.838-1.672,114.758C-38.154,85.5-59.127,46.552-49.61,10.246-40.269-26.06-.262-59.546,43.623-60.78,87.507-62.19,135.621-31.347,152.188,14.652Z" transform="translate(59.898 68.382)" fill="#fff0e5"/>
      <g id="Grupo_24" data-name="Grupo 24" transform="translate(15.319 16.989)">
        <text id="_" data-name="+" transform="translate(103.149 126.541)" fill="#ff6b00" font-size="28" font-family="Montserrat-Bold, Montserrat" font-weight="700"><tspan x="-8.386" y="0">+</tspan></text>
        <text id="_2" data-name="+" transform="translate(15.319 149.962)" fill="#ff6b00" font-size="28" font-family="Montserrat-Bold, Montserrat" font-weight="700"><tspan x="-8.386" y="0">+</tspan></text>
        <text id="_3" data-name="+" transform="translate(132.426 27)" fill="#ff6b00" font-size="28" font-family="Montserrat-Bold, Montserrat" font-weight="700"><tspan x="-8.386" y="0">+</tspan></text>
        <circle id="Elipse_1" data-name="Elipse 1" cx="5.855" cy="5.855" r="5.855" transform="translate(1.464 32.204)" fill="#ff6b00"/>
        <circle id="Elipse_2" data-name="Elipse 2" cx="5.855" cy="5.855" r="5.855" transform="translate(40.987 168.341)" fill="#ff6b00"/>
        <circle id="Elipse_5" data-name="Elipse 5" cx="5.855" cy="5.855" r="5.855" transform="translate(152.239 162.486)" fill="#ff6b00"/>
        <circle id="Elipse_6" data-name="Elipse 6" cx="14.638" cy="14.638" r="14.638" transform="translate(60.017 14.638)" fill="#ff6b00" opacity="0.1"/>
        <circle id="Elipse_7" data-name="Elipse 7" cx="14.638" cy="14.638" r="14.638" transform="translate(152.239 111.252)" fill="#ff6b00" opacity="0.1"/>
        <circle id="Elipse_11" data-name="Elipse 11" cx="10.247" cy="10.247" r="10.247" transform="translate(175.661 2.928)" fill="#ff6b00" opacity="0.1"/>
        <circle id="Elipse_12" data-name="Elipse 12" cx="10.247" cy="10.247" r="10.247" transform="translate(0 172.733)" fill="#ff6b00" opacity="0.1"/>
        <circle id="Elipse_8" data-name="Elipse 8" cx="14.638" cy="14.638" r="14.638" transform="translate(55.626 153.703)" fill="#ff6b00" opacity="0.1"/>
        <g id="Elipse_3" data-name="Elipse 3" transform="translate(146.384 105.396)" fill="none" stroke="#ff6b00" stroke-width="2">
          <circle cx="5.855" cy="5.855" r="5.855" stroke="none"/>
          <circle cx="5.855" cy="5.855" r="4.855" fill="none"/>
        </g>
        <g id="Elipse_4" data-name="Elipse 4" transform="translate(10.247 76.12)" fill="none" stroke="#ff6b00" stroke-width="2">
          <circle cx="5.855" cy="5.855" r="5.855" stroke="none"/>
          <circle cx="5.855" cy="5.855" r="4.855" fill="none"/>
        </g>
      </g>
      <g id="Grupo_26" data-name="Grupo 26" transform="translate(47.524 46.266)">
        <g id="Rectángulo_8" data-name="Rectángulo 8" transform="translate(0 0)" fill="#fff" stroke="#404040" stroke-linecap="round" stroke-linejoin="round" stroke-width="3">
          <rect width="95.149" height="39.524" stroke="none"/>
          <rect x="1.5" y="1.5" width="92.149" height="36.524" fill="none"/>
        </g>
        <g id="Rectángulo_9" data-name="Rectángulo 9" transform="translate(36.596 48.307)" fill="#fff" stroke="#404040" stroke-linecap="round" stroke-linejoin="round" stroke-width="3">
          <rect width="95.149" height="39.524" stroke="none"/>
          <rect x="1.5" y="1.5" width="92.149" height="36.524" fill="none"/>
        </g>
        <g id="Rectángulo_10" data-name="Rectángulo 10" transform="translate(0 96.613)" fill="#fff" stroke="#404040" stroke-linecap="round" stroke-linejoin="round" stroke-width="3">
          <rect width="95.149" height="39.524" stroke="none"/>
          <rect x="1.5" y="1.5" width="92.149" height="36.524" fill="none"/>
        </g>
        <path id="Trazado_51" data-name="Trazado 51" d="M-9.82,2.642h-8.666L-20.1,6.624H-26.01l9.047-20.494h5.709L-2.179,6.624H-8.21Zm-1.7-4.274L-14.153-8.19l-2.635,6.558ZM19.31-4.062a5.746,5.746,0,0,1,2.752,1.918,5.032,5.032,0,0,1,1,3.147A4.725,4.725,0,0,1,20.891,5.16a11.177,11.177,0,0,1-6.265,1.464H3.56V-13.87H14.041a10.3,10.3,0,0,1,5.972,1.449,4.549,4.549,0,0,1,2.049,3.908,4.869,4.869,0,0,1-.717,2.62A5.016,5.016,0,0,1,19.31-4.062ZM9.3-9.684v3.952h3.982q2.928,0,2.928-1.991,0-1.962-2.928-1.962Zm4.86,12.121Q17.2,2.437,17.2.358T14.158-1.72H9.3V2.437Zm26.232,4.6a12.128,12.128,0,0,1-5.782-1.361,10.18,10.18,0,0,1-4.026-3.791,10.456,10.456,0,0,1-1.464-5.5,10.456,10.456,0,0,1,1.464-5.5,10.18,10.18,0,0,1,4.026-3.791A12.128,12.128,0,0,1,40.39-14.28a12.411,12.411,0,0,1,5.065,1A9.745,9.745,0,0,1,49.2-10.415L45.513-7.078a6.068,6.068,0,0,0-4.831-2.4,5.962,5.962,0,0,0-2.972.732,5.08,5.08,0,0,0-2.02,2.064,6.352,6.352,0,0,0-.717,3.059,6.352,6.352,0,0,0,.717,3.059A5.08,5.08,0,0,0,37.711,1.5a5.962,5.962,0,0,0,2.972.732,6.068,6.068,0,0,0,4.831-2.4L49.2,3.169a9.745,9.745,0,0,1-3.747,2.869A12.411,12.411,0,0,1,40.39,7.033Z" transform="translate(34.778 22.653)" fill="#404040"/>
        <path id="Trazado_49" data-name="Trazado 49" d="M8.05,2.512H-.616l-1.61,3.982H-8.14L.907-14H6.615L15.691,6.494H9.66Zm-1.7-4.274L3.717-8.32,1.082-1.762Z" transform="translate(18.182 120.86)" fill="#404040"/>
        <path id="Trazado_50" data-name="Trazado 50" d="M-1.04,2.512H-9.706l-1.61,3.982H-17.23L-8.183-14h5.709L6.6,6.494H.57Zm-1.7-4.274L-5.373-8.32-8.008-1.762ZM28.09-4.192a5.746,5.746,0,0,1,2.752,1.918,5.032,5.032,0,0,1,1,3.147A4.725,4.725,0,0,1,29.671,5.03a11.177,11.177,0,0,1-6.265,1.464H12.34V-14H22.821a10.3,10.3,0,0,1,5.972,1.449,4.549,4.549,0,0,1,2.049,3.908,4.869,4.869,0,0,1-.717,2.62A5.016,5.016,0,0,1,28.09-4.192ZM18.078-9.813v3.952h3.982q2.928,0,2.928-1.991,0-1.962-2.928-1.962Zm4.86,12.121q3.045,0,3.045-2.079T22.938-1.85h-4.86V2.307Z" transform="translate(63.736 71.09)" fill="#404040"/>
      </g>
    </g>
  </g>
</svg>
