<svg id="Grupo_912896" data-name="Grupo 912896" xmlns="http://www.w3.org/2000/svg" width="52.819" height="61.756" viewBox="0 0 52.819 61.756">
  <path id="Trazado_724" data-name="Trazado 724" d="M4.882-.047,30.988-.053c1.7,1.718,11.888,12.013,15.452,15.621V56.744a4.913,4.913,0,0,1-4.882,4.943H4.882A4.913,4.913,0,0,1,0,56.744V4.9A4.913,4.913,0,0,1,4.882-.047Z" transform="translate(6.379 0.07)" fill="#fff"/>
  <g id="Grupo_1192" data-name="Grupo 1192">
    <path id="Trazado_722" data-name="Trazado 722" d="M1500.709,662.327h-26.022a5.09,5.09,0,0,0-5.053,5.116v51.5a5.091,5.091,0,0,0,5.053,5.116h36.335a5.09,5.09,0,0,0,5.053-5.116V677.884Zm12.527,56.617a2.231,2.231,0,0,1-2.214,2.242h-36.335a2.231,2.231,0,0,1-2.214-2.242v-51.5a2.231,2.231,0,0,1,2.214-2.242h24.846l.014.014v13.85h13.68l.009.009Z" transform="translate(-1463.298 -662.327)" fill="#fc7c6b"/>
    <path id="Trazado_723" data-name="Trazado 723" d="M1465.1,953.084a1.97,1.97,0,0,1-1.9,2.023h-41.773a1.97,1.97,0,0,1-1.9-2.023V932.85a1.97,1.97,0,0,1,1.9-2.023h41.773a1.97,1.97,0,0,1,1.9,2.023Z" transform="translate(-1419.534 -902.42)" fill="#f15642"/>
    <text id="PDF" transform="translate(19.32 45.175)" fill="#f8f8f8" font-size="14" font-family="Montserrat-ExtraBold, Montserrat" font-weight="800" letter-spacing="0.04em" style="isolation: isolate"><tspan x="-15.925" y="0">PDF</tspan></text>
  </g>
</svg>
