<svg xmlns="http://www.w3.org/2000/svg" xmlns:xlink="http://www.w3.org/1999/xlink" width="387.073" height="249.296" viewBox="0 0 387.073 249.296">
  <defs>
    <clipPath id="clip-path">
      <path id="Trazado_678343" data-name="Trazado 678343" d="M123.41,148.266c-26.579,44.643-11.37,123.27,38.357,141.242,66.659,24.094,94.3-25.613,159.4.026s134.14,8.647,141.044-50.528-43.085-65.14-39.139-91.772,0-70.361-43.4-74.648c-51.659-5.1-57.5,39.185-123.1,21.431s-112.019,18.741-133.16,54.25Z" transform="translate(-110.487 -72.173)" fill="none"/>
    </clipPath>
    <filter id="Trazado_678296" x="86.109" y="89.297" width="58.474" height="111.069" filterUnits="userSpaceOnUse">
      <feOffset dx="-1" dy="-3" input="SourceAlpha"/>
      <feGaussianBlur stdDeviation="2" result="blur"/>
      <feFlood flood-color="#3d7c35" flood-opacity="0.502"/>
      <feComposite operator="in" in2="blur"/>
      <feComposite in="SourceGraphic"/>
    </filter>
    <filter id="Trazado_678297" x="134.207" y="121.041" width="71.958" height="70.744" filterUnits="userSpaceOnUse">
      <feOffset dx="-1" dy="-3" input="SourceAlpha"/>
      <feGaussianBlur stdDeviation="2" result="blur-2"/>
      <feFlood flood-color="#3d7c35" flood-opacity="0.502"/>
      <feComposite operator="in" in2="blur-2"/>
      <feComposite in="SourceGraphic"/>
    </filter>
    <filter id="Trazado_678298" x="160.729" y="120.041" width="71.958" height="68.495" filterUnits="userSpaceOnUse">
      <feOffset dx="-1" dy="-4" input="SourceAlpha"/>
      <feGaussianBlur stdDeviation="2" result="blur-3"/>
      <feFlood flood-color="#3d7c35" flood-opacity="0.502"/>
      <feComposite operator="in" in2="blur-3"/>
      <feComposite in="SourceGraphic"/>
    </filter>
    <filter id="Trazado_678299" x="212.739" y="65.293" width="69.62" height="140.38" filterUnits="userSpaceOnUse">
      <feOffset dx="-1" dy="-3" input="SourceAlpha"/>
      <feGaussianBlur stdDeviation="2" result="blur-4"/>
      <feFlood flood-color="#3d7c35" flood-opacity="0.502"/>
      <feComposite operator="in" in2="blur-4"/>
      <feComposite in="SourceGraphic"/>
    </filter>
    <filter id="Trazado_678300" x="203.341" y="177.072" width="74.651" height="47.27" filterUnits="userSpaceOnUse">
      <feOffset dx="-1" dy="-4" input="SourceAlpha"/>
      <feGaussianBlur stdDeviation="3" result="blur-5"/>
      <feFlood flood-color="#3d7c35" flood-opacity="0.502"/>
      <feComposite operator="in" in2="blur-5"/>
      <feComposite in="SourceGraphic"/>
    </filter>
    <filter id="Trazado_678301" x="232.762" y="48.478" width="71.553" height="164.626" filterUnits="userSpaceOnUse">
      <feOffset dx="-6" dy="-3" input="SourceAlpha"/>
      <feGaussianBlur stdDeviation="2" result="blur-6"/>
      <feFlood flood-color="#3d7c35" flood-opacity="0.502"/>
      <feComposite operator="in" in2="blur-6"/>
      <feComposite in="SourceGraphic"/>
    </filter>
    <filter id="Trazado_678302" x="65.496" y="62.19" width="67.188" height="153.405" filterUnits="userSpaceOnUse">
      <feOffset dx="3" dy="-3" input="SourceAlpha"/>
      <feGaussianBlur stdDeviation="2" result="blur-7"/>
      <feFlood flood-color="#3d7c35" flood-opacity="0.502"/>
      <feComposite operator="in" in2="blur-7"/>
      <feComposite in="SourceGraphic"/>
    </filter>
    <filter id="Trazado_678303" x="115.699" y="117.368" width="85.766" height="91.305" filterUnits="userSpaceOnUse">
      <feOffset dx="-1" dy="-4" input="SourceAlpha"/>
      <feGaussianBlur stdDeviation="3" result="blur-8"/>
      <feFlood flood-color="#3d7c35" flood-opacity="0.502"/>
      <feComposite operator="in" in2="blur-8"/>
      <feComposite in="SourceGraphic"/>
    </filter>
    <filter id="Trazado_678304" x="169.075" y="118.216" width="85.766" height="90.259" filterUnits="userSpaceOnUse">
      <feOffset dx="-1" dy="-4" input="SourceAlpha"/>
      <feGaussianBlur stdDeviation="3" result="blur-9"/>
      <feFlood flood-color="#3d7c35" flood-opacity="0.502"/>
      <feComposite operator="in" in2="blur-9"/>
      <feComposite in="SourceGraphic"/>
    </filter>
    <filter id="Trazado_678305" x="107.8" y="173.017" width="74.65" height="41.344" filterUnits="userSpaceOnUse">
      <feOffset dx="-1" dy="-4" input="SourceAlpha"/>
      <feGaussianBlur stdDeviation="3" result="blur-10"/>
      <feFlood flood-color="#3d7c35" flood-opacity="0.502"/>
      <feComposite operator="in" in2="blur-10"/>
      <feComposite in="SourceGraphic"/>
    </filter>
    <linearGradient id="linear-gradient" x1="0.819" y1="0.334" x2="0.17" y2="0.716" gradientUnits="objectBoundingBox">
      <stop offset="0" stop-color="#36622b"/>
      <stop offset="1" stop-color="#729d39"/>
    </linearGradient>
    <linearGradient id="linear-gradient-2" x1="0.5" y1="0.686" x2="0.5" y2="0.077" gradientUnits="objectBoundingBox">
      <stop offset="0" stop-color="#ccc"/>
      <stop offset="1" stop-color="#fff"/>
    </linearGradient>
    <linearGradient id="linear-gradient-3" x1="0.639" y1="1.13" x2="0.414" y2="-0.14" xlink:href="#linear-gradient-2"/>
    <filter id="Trazado_678309" x="238.245" y="55.132" width="118.568" height="167.48" filterUnits="userSpaceOnUse">
      <feOffset dx="-4" dy="-3" input="SourceAlpha"/>
      <feGaussianBlur stdDeviation="2" result="blur-11"/>
      <feFlood flood-color="#3d7c35" flood-opacity="0.502"/>
      <feComposite operator="in" in2="blur-11"/>
      <feComposite in="SourceGraphic"/>
    </filter>
    <filter id="Trazado_678310" x="31.25" y="61.604" width="105.153" height="148.172" filterUnits="userSpaceOnUse">
      <feOffset dx="4" dy="-3" input="SourceAlpha"/>
      <feGaussianBlur stdDeviation="2" result="blur-12"/>
      <feFlood flood-color="#3d7c35" flood-opacity="0.502"/>
      <feComposite operator="in" in2="blur-12"/>
      <feComposite in="SourceGraphic"/>
    </filter>
    <filter id="Trazado_678324" x="36.677" y="185.454" width="128.661" height="46.732" filterUnits="userSpaceOnUse">
      <feOffset dx="-4" dy="-4" input="SourceAlpha"/>
      <feGaussianBlur stdDeviation="2" result="blur-13"/>
      <feFlood flood-color="#3d7c35" flood-opacity="0.502"/>
      <feComposite operator="in" in2="blur-13"/>
      <feComposite in="SourceGraphic"/>
    </filter>
    <filter id="Trazado_678325" x="226.79" y="176.444" width="130.082" height="64.951" filterUnits="userSpaceOnUse">
      <feOffset dx="-4" dy="-4" input="SourceAlpha"/>
      <feGaussianBlur stdDeviation="2" result="blur-14"/>
      <feFlood flood-color="#3d7c35" flood-opacity="0.502"/>
      <feComposite operator="in" in2="blur-14"/>
      <feComposite in="SourceGraphic"/>
    </filter>
    <filter id="Trazado_678326" x="217.637" y="214.802" width="14.703" height="17.116" filterUnits="userSpaceOnUse">
      <feOffset dx="-4" dy="-1" input="SourceAlpha"/>
      <feGaussianBlur stdDeviation="2" result="blur-15"/>
      <feFlood flood-color="#3d7c35" flood-opacity="0.502"/>
      <feComposite operator="in" in2="blur-15"/>
      <feComposite in="SourceGraphic"/>
    </filter>
    <linearGradient id="linear-gradient-4" x1="0.5" y1="3.99" x2="0.5" y2="-6.832" gradientUnits="objectBoundingBox">
      <stop offset="0" stop-color="#ddd"/>
      <stop offset="1" stop-color="#fff"/>
    </linearGradient>
    <linearGradient id="linear-gradient-5" x1="0.5" y1="13.296" x2="0.5" y2="-31.503" xlink:href="#linear-gradient-4"/>
    <linearGradient id="linear-gradient-6" x1="0.5" y1="4.042" x2="0.5" y2="-7.922" xlink:href="#linear-gradient-4"/>
    <linearGradient id="linear-gradient-7" x1="0.5" y1="3.562" x2="0.5" y2="-7.404" xlink:href="#linear-gradient-4"/>
    <linearGradient id="linear-gradient-8" x1="0.5" y1="6.489" x2="0.5" y2="-13.51" xlink:href="#linear-gradient-4"/>
    <linearGradient id="linear-gradient-9" x1="73.301" y1="0.281" x2="73.429" y2="0.843" xlink:href="#linear-gradient-2"/>
    <linearGradient id="linear-gradient-10" x1="67.38" y1="0.148" x2="66.798" y2="0.993" xlink:href="#linear-gradient-2"/>
    <linearGradient id="linear-gradient-11" x1="13.261" y1="0.243" x2="13.114" y2="0.323" xlink:href="#linear-gradient-2"/>
    <linearGradient id="linear-gradient-12" x1="38.563" y1="0.789" x2="38.553" y2="0.259" xlink:href="#linear-gradient-2"/>
    <linearGradient id="linear-gradient-13" x1="1.525" y1="0.077" x2="0.754" y2="0.404" xlink:href="#linear-gradient-2"/>
    <linearGradient id="linear-gradient-14" x1="0.001" y1="0.499" x2="1.001" y2="0.499" xlink:href="#linear-gradient-2"/>
    <linearGradient id="linear-gradient-15" x1="0.476" y1="0.509" x2="0.605" y2="0.365" xlink:href="#linear-gradient-2"/>
    <linearGradient id="linear-gradient-16" x1="0.6" y1="0.157" x2="0.342" y2="0.733" xlink:href="#linear-gradient-2"/>
    <linearGradient id="linear-gradient-17" x1="0" y1="0.5" x2="1" y2="0.5" xlink:href="#linear-gradient-2"/>
    <linearGradient id="linear-gradient-18" x1="0.436" y1="1.252" x2="0.577" y2="0.554" xlink:href="#linear-gradient-4"/>
    <filter id="Trazado_678344" x="22.021" y="33.179" width="115.936" height="53.852" filterUnits="userSpaceOnUse">
      <feOffset dx="-5" dy="6" input="SourceAlpha"/>
      <feGaussianBlur stdDeviation="4" result="blur-16"/>
      <feFlood flood-color="#296629" flood-opacity="0.502"/>
      <feComposite operator="in" in2="blur-16"/>
      <feComposite in="SourceGraphic"/>
    </filter>
    <linearGradient id="linear-gradient-19" x1="0.418" y1="0.917" x2="0.561" y2="0.189" gradientUnits="objectBoundingBox">
      <stop offset="0" stop-color="#f4a03b"/>
      <stop offset="0.62" stop-color="#f7c543"/>
      <stop offset="1" stop-color="#f9d748"/>
    </linearGradient>
    <linearGradient id="linear-gradient-20" x1="0.501" y1="1.054" x2="0.495" y2="0.342" xlink:href="#linear-gradient-19"/>
    <linearGradient id="linear-gradient-21" x1="17.685" y1="-52.939" x2="17.678" y2="-53.572" xlink:href="#linear-gradient-19"/>
    <linearGradient id="linear-gradient-22" x1="54.401" y1="-110.973" x2="54.395" y2="-111.723" xlink:href="#linear-gradient-19"/>
    <linearGradient id="linear-gradient-23" x1="120.766" y1="-121.177" x2="120.759" y2="-121.875" xlink:href="#linear-gradient-19"/>
    <linearGradient id="linear-gradient-24" x1="160.525" y1="-117.459" x2="160.52" y2="-118.222" xlink:href="#linear-gradient-19"/>
    <linearGradient id="linear-gradient-25" x1="236.091" y1="-60.5" x2="236.084" y2="-61.137" xlink:href="#linear-gradient-19"/>
    <linearGradient id="linear-gradient-26" x1="235.636" y1="-8.431" x2="235.63" y2="-9.143" xlink:href="#linear-gradient-19"/>
    <linearGradient id="linear-gradient-27" x1="240.129" y1="46.531" x2="240.122" y2="45.898" xlink:href="#linear-gradient-19"/>
    <linearGradient id="linear-gradient-28" x1="161.384" y1="103.157" x2="161.379" y2="102.407" xlink:href="#linear-gradient-19"/>
    <linearGradient id="linear-gradient-29" x1="119.959" y1="113.96" x2="119.952" y2="113.262" xlink:href="#linear-gradient-19"/>
    <linearGradient id="linear-gradient-30" x1="53.579" y1="109.533" x2="53.573" y2="108.769" xlink:href="#linear-gradient-19"/>
    <linearGradient id="linear-gradient-31" x1="17.453" y1="54.001" x2="17.446" y2="53.364" xlink:href="#linear-gradient-19"/>
    <linearGradient id="linear-gradient-32" x1="0.515" y1="1.3" x2="0.461" y2="0.2" xlink:href="#linear-gradient-4"/>
    <filter id="Trazado_678357" x="230.719" y="-0.001" width="156.354" height="82.358" filterUnits="userSpaceOnUse">
      <feOffset dx="4" dy="4" input="SourceAlpha"/>
      <feGaussianBlur stdDeviation="5" result="blur-17"/>
      <feFlood flood-color="#296629" flood-opacity="0.502"/>
      <feComposite operator="in" in2="blur-17"/>
      <feComposite in="SourceGraphic"/>
    </filter>
    <filter id="Trazado_678358" x="0" y="48.102" width="111.812" height="52.512" filterUnits="userSpaceOnUse">
      <feOffset dx="-3" dy="6" input="SourceAlpha"/>
      <feGaussianBlur stdDeviation="4" result="blur-18"/>
      <feFlood flood-color="#256631" flood-opacity="0.502"/>
      <feComposite operator="in" in2="blur-18"/>
      <feComposite in="SourceGraphic"/>
    </filter>
  </defs>
  <g id="_3376797" data-name="3376797" transform="translate(-3.927 55.695)">
    <g id="OBJECTS" transform="translate(-78.265 -102)">
      <g id="Grupo_913625" data-name="Grupo 913625" transform="translate(71.66 56.07)">
        <g id="Grupo_913621" data-name="Grupo 913621" transform="translate(25.532 10.589)" clip-path="url(#clip-path)">
          <g id="Grupo_913620" data-name="Grupo 913620">
            <g id="Grupo_913608" data-name="Grupo 913608">
              <g id="Grupo_913593" data-name="Grupo 913593">
                <path id="Trazado_678284" data-name="Trazado 678284" d="M123.41,148.266c-26.579,44.643-11.37,123.27,38.357,141.242,66.659,24.094,94.3-25.613,159.4.026s134.14,8.647,141.044-50.528-43.085-65.14-39.139-91.772,0-70.361-43.4-74.648c-51.659-5.1-57.5,39.185-123.1,21.431s-112.019,18.741-133.16,54.25Z" transform="translate(-110.487 -72.173)" fill="#f7ea9f"/>
                <g id="Grupo_913592" data-name="Grupo 913592">
                  <g id="Grupo_913591" data-name="Grupo 913591" opacity="0.35">
                    <path id="Trazado_678285" data-name="Trazado 678285" d="M123.41,148.266c-26.579,44.643-11.37,123.27,38.357,141.242,66.659,24.094,94.3-25.613,159.4.026s134.14,8.647,141.044-50.528-43.085-65.14-39.139-91.772,0-70.361-43.4-74.648c-51.659-5.1-57.5,39.185-123.1,21.431s-112.019,18.741-133.16,54.25Z" transform="translate(-110.487 -72.173)" fill="#94d133"/>
                  </g>
                </g>
              </g>
              <g id="Grupo_913596" data-name="Grupo 913596" transform="translate(18.296 12.38)">
                <path id="Trazado_678286" data-name="Trazado 678286" d="M300.423,115.107c-34.194,5.7-63.568-17.1-108.718,5.7s-63.627,67.073-47.846,117.924,73.708,55.677,106.587,45.156,53.922-10.166,94.251,4.564,88.4,13.441,107.843-15.959,10.521-67.073-15.341-86.8-8.983-28.822-13.152-55.677C420.1,104.586,404.321,90.967,381.963,91c-28.947.039-41.23,17.393-81.54,24.113Z" transform="translate(-138.31 -91)" fill="#b4cc5c"/>
                <g id="Grupo_913595" data-name="Grupo 913595">
                  <g id="Grupo_913594" data-name="Grupo 913594" opacity="0.35">
                    <path id="Trazado_678287" data-name="Trazado 678287" d="M300.423,115.107c-34.194,5.7-63.568-17.1-108.718,5.7s-63.627,67.073-47.846,117.924,73.708,55.677,106.587,45.156,53.922-10.166,94.251,4.564,88.4,13.441,107.843-15.959,10.521-67.073-15.341-86.8-8.983-28.822-13.152-55.677C420.1,104.586,404.321,90.967,381.963,91c-28.947.039-41.23,17.393-81.54,24.113Z" transform="translate(-138.31 -91)" fill="#2b9329"/>
                  </g>
                </g>
              </g>
              <g id="Grupo_913599" data-name="Grupo 913599" transform="translate(31.371 21.966)">
                <path id="Trazado_678288" data-name="Trazado 678288" d="M309.422,127.549c-35.575,5.175-74.964-13.592-108.284,8.766s-59.228,72.919-30.689,115.734c37.7,56.552,93.37,14.3,132.555,18.412,37.535,3.945,100.38,33.931,129.162,14.467,27.178-18.379,27.618-43.841,17.972-67.073s-34.194-24.988-27.618-54.8c6.517-29.552-2.847-59.952-35.4-57.321-26.547,2.144-24.988,14.138-77.706,21.812Z" transform="translate(-158.194 -105.578)" fill="#729d39"/>
                <g id="Grupo_913598" data-name="Grupo 913598">
                  <g id="Grupo_913597" data-name="Grupo 913597" opacity="0.35">
                    <path id="Trazado_678289" data-name="Trazado 678289" d="M309.422,127.549c-35.575,5.175-74.964-13.592-108.284,8.766s-59.228,72.919-30.689,115.734c37.7,56.552,93.37,14.3,132.555,18.412,37.535,3.945,100.38,33.931,129.162,14.467,27.178-18.379,27.618-43.841,17.972-67.073s-34.194-24.988-27.618-54.8c6.517-29.552-2.847-59.952-35.4-57.321-26.547,2.144-24.988,14.138-77.706,21.812Z" transform="translate(-158.194 -105.578)" fill="#076640"/>
                  </g>
                </g>
              </g>
              <g id="Grupo_913602" data-name="Grupo 913602" transform="translate(46.078 31.624)">
                <path id="Trazado_678290" data-name="Trazado 678290" d="M445.091,270.236c-18.853,32.438-71.019,15.782-103.9,3.945-21.917-7.891-31.735-9.364-47.418-6.477h0c-3.867.717-8.088,1.7-12.941,2.906q-2.525.631-5.293,1.348c-3.617.927-7.569,1.966-11.935,3.1a79.092,79.092,0,0,1-25.4,2.4c-.3-.02-.6-.046-.907-.072-27.605-2.288-51.4-19.912-55.671-51.423-5.589-41.289,11.4-61.812,36.824-76.279,32.925-18.734,60.668-6.293,96.25-9.647,41.888-3.945,61.569-18.853,79.547-19.727s34.964,11.619,30.249,32.438c-4.511,19.918-11.4,36.39,4.379,48.227,12.409,9.3,33.938,38.777,16.222,69.263Z" transform="translate(-180.559 -120.264)" fill="#36622b"/>
                <g id="Grupo_913601" data-name="Grupo 913601">
                  <g id="Grupo_913600" data-name="Grupo 913600" opacity="0.35">
                    <path id="Trazado_678291" data-name="Trazado 678291" d="M445.091,270.236c-18.853,32.438-71.019,15.782-103.9,3.945-21.917-7.891-31.735-9.364-47.418-6.477h0c-3.867.717-8.088,1.7-12.941,2.906q-2.525.631-5.293,1.348c-3.617.927-7.569,1.966-11.935,3.1a79.092,79.092,0,0,1-25.4,2.4c-.3-.02-.6-.046-.907-.072-27.605-2.288-51.4-19.912-55.671-51.423-5.589-41.289,11.4-61.812,36.824-76.279,32.925-18.734,60.668-6.293,96.25-9.647,41.888-3.945,61.569-18.853,79.547-19.727s34.964,11.619,30.249,32.438c-4.511,19.918-11.4,36.39,4.379,48.227,12.409,9.3,33.938,38.777,16.222,69.263Z" transform="translate(-180.559 -120.264)" fill="#06492c"/>
                  </g>
                </g>
              </g>
              <g id="Grupo_913607" data-name="Grupo 913607" transform="translate(57.381 40.227)">
                <g id="Grupo_913603" data-name="Grupo 913603">
                  <path id="Trazado_678292" data-name="Trazado 678292" d="M302.8,166.2c-29.538-3.209-76.358-5.425-98.637,38.58s17.972,78.91,51.291,76.279c32.964-2.6,43.4-21.483,88.556-7.016,43.361,13.895,76.115,31.044,94.691,8.108,30.709-37.916-59.182-107.619-135.9-115.951Z" transform="translate(-197.748 -144.079)" fill="#22441e"/>
                  <path id="Trazado_678293" data-name="Trazado 678293" d="M485.9,134.211c-6.372-3.281-22.483,3.492-39.455,8.66-13.526,4.116-26.329,3.9-27.454,7.891-2.295,8.134,17.636,13.434,34.523,18.412,12.113,3.571,23.982,11.751,31.4,7.358C502.673,166.011,503.659,143.364,485.9,134.211Z" transform="translate(-273.445 -133.348)" fill="#22441e"/>
                </g>
                <g id="Grupo_913606" data-name="Grupo 913606">
                  <g id="Grupo_913605" data-name="Grupo 913605" opacity="0.35">
                    <g id="Grupo_913604" data-name="Grupo 913604">
                      <path id="Trazado_678294" data-name="Trazado 678294" d="M302.8,166.2c-29.538-3.209-76.358-5.425-98.637,38.58s17.972,78.91,51.291,76.279c32.964-2.6,43.4-21.483,88.556-7.016,43.361,13.895,76.115,31.044,94.691,8.108,30.709-37.916-59.182-107.619-135.9-115.951Z" transform="translate(-197.748 -144.079)" fill="#053821"/>
                      <path id="Trazado_678295" data-name="Trazado 678295" d="M485.9,134.211c-6.372-3.281-22.483,3.492-39.455,8.66-13.526,4.116-26.329,3.9-27.454,7.891-2.295,8.134,17.636,13.434,34.523,18.412,12.113,3.571,23.982,11.751,31.4,7.358C502.673,166.011,503.659,143.364,485.9,134.211Z" transform="translate(-273.445 -133.348)" fill="#053821"/>
                    </g>
                  </g>
                </g>
              </g>
            </g>
            <g id="Grupo_913619" data-name="Grupo 913619" transform="translate(0.949 37.124)">
              <g id="Grupo_913609" data-name="Grupo 913609" transform="translate(77.16 16.815)">
                <g transform="matrix(1, 0, 0, 1, -93.11, -74.29)" filter="url(#Trazado_678296)">
                  <path id="Trazado_678296-2" data-name="Trazado 678296" d="M272.631,268.236s-1.184-2.985-3.86-.539a2.914,2.914,0,0,0-1.5-3.235,2.282,2.282,0,0,0-3.15.789s.395-2.939-1.894-3.124-2.676,3.025-2.676,3.025-2.177-2.341-3.281,1.046a1.073,1.073,0,0,0-.072-.178c-.026-1.085-.059-2.17-.085-3.248a4.485,4.485,0,0,0,2.137-1.572c2.328.914,3.472-1.545,3.472-1.545s1.618.6,1.749-.875-2.354-.947-2.354-.947c-.072-1.822-1.953-1.078-1.953-1.078-.46-2.992-2.795-1.335-2.959-1.216a5.1,5.1,0,0,0,.408-2.229,12.507,12.507,0,0,0,7.181-6.227,1.607,1.607,0,0,0,2.5-.835,1.655,1.655,0,0,0,1.966-1.42s1.657,1.026,2.525-.079a2.358,2.358,0,0,0,0-2.512c.164.046,2.768.822,3.459-.4.71-1.263-.316-3.091-2.92-2.295,0,0-1.177-2.985-3.86-.539a2.916,2.916,0,0,0-1.493-3.235,2.278,2.278,0,0,0-3.15.789s.395-2.939-1.894-3.124-2.683,3.025-2.683,3.025-2.124-2.288-3.235.934c-.085-2.479-.178-5.254-.263-8.174a1.636,1.636,0,0,0,.381-.526s.46,1.953,2.466.625a1.384,1.384,0,0,0,1.3.888,1.26,1.26,0,0,0,1.164-.723c.947.644,1.5.381,1.854-.342a1.048,1.048,0,0,0,1.177-.671,1.088,1.088,0,0,0,.2-.145c.3.145,1.013.414,1.434-.125a1.09,1.09,0,0,0,.237-.7,2.439,2.439,0,0,0,2.085.914,2.816,2.816,0,0,0,1.835-1.1,1.752,1.752,0,0,0,2.17-.973s1.013.381,1.092-.546-1.473-.592-1.473-.592c-.039-1.138-1.223-.671-1.223-.671-.276-1.854-1.716-.848-1.841-.763.053-.132.861-2.065-.644-2.269a1.375,1.375,0,0,0-1.381.546c-.2.02-.349.046-.349.046-.046-1.131-1.223-.671-1.223-.671-.283-1.854-1.723-.848-1.848-.763.053-.132.868-2.065-.638-2.269-1.558-.21-1.769,1.512-1.769,1.512-.526-.947-.842.421-.842.421s.039-1.558-.8-1.092a1.555,1.555,0,0,0-.756,1.434c-1.953-1.453-2.1.789-2.1.789-.48-.132-.671.085-.73.381a2.035,2.035,0,0,0-.013-.283,28.088,28.088,0,0,1,3.064-4.156,8.82,8.82,0,0,1,3.34-2.012.74.74,0,0,0,.513.822c.855.256,1.453-.815,1.453-.815,1.072.684,1.841-.6,1.841-.6a3.284,3.284,0,0,0,2.828,1.236,3.827,3.827,0,0,0,2.486-1.493c1.966.769,2.939-1.315,2.939-1.315s1.368.513,1.48-.743-1.992-.8-1.992-.8c-.059-1.545-1.657-.914-1.657-.914-.388-2.538-2.367-1.138-2.505-1.039.072-.178,1.177-2.795-.861-3.071-2.117-.289-2.4,2.052-2.4,2.052-.717-1.289-1.144.572-1.144.572s.059-2.111-1.085-1.486a2.119,2.119,0,0,0-1.026,1.94c-2.637-1.966-2.841,1.072-2.841,1.072-1.585-.427-.855,1.927-.855,1.927s-2.183-.467-1.881.94,2.012.861,2.012.861a2.056,2.056,0,0,0,.579.684,9.319,9.319,0,0,0-1.532.664,11.955,11.955,0,0,0-2.86,2.157c-.085-2.847-.171-5.675-.256-8.371a4.384,4.384,0,0,0,2.354-1.611c2.255.881,3.367-1.506,3.367-1.506s1.572.592,1.7-.848-2.295-.914-2.295-.914c-.059-1.769-1.894-1.052-1.894-1.052-.447-2.9-2.716-1.3-2.874-1.184.072-.171,1.269-2.979-.736-3.472-.2-4.991-.395-8.292-.566-8.364-.46-.2-.447,2.282-.3,8.3-1.861.158-2.131,2.367-2.131,2.367-.815-1.473-1.3.658-1.3.658s.066-2.42-1.243-1.7a2.418,2.418,0,0,0-1.177,2.223c-3.025-2.255-3.255,1.23-3.255,1.23-1.815-.493-.98,2.209-.98,2.209s-2.505-.539-2.163,1.078,2.308.98,2.308.98c1.177,2.124,3.077.441,3.229.3-.026.079-.5,1.322.447,1.611.986.3,1.67-.934,1.67-.934,1.23.783,2.111-.684,2.111-.684a3.943,3.943,0,0,0,2.749,1.453c.072,3.906.039,8.595-.053,13.559a.978.978,0,0,0-.454,1.414s-1.532-.27-1.828.519.355,1.815,1.828,1.427c0,0-.473.921.355,1.3,0,.289-.02.572-.026.861a4.652,4.652,0,0,0-.48-.309c-.973-.533-3.959-.717-6.135-1.736a13.834,13.834,0,0,1-1.387-.736,3.784,3.784,0,0,0,1.683-1.282c1.966.769,2.939-1.315,2.939-1.315s1.368.513,1.486-.743-2-.8-2-.8c-.059-1.545-1.657-.914-1.657-.914-.388-2.538-2.367-1.131-2.505-1.032.072-.178,1.177-2.8-.861-3.077-2.111-.289-2.4,2.052-2.4,2.052-.71-1.282-1.138.572-1.138.572s.053-2.111-1.085-1.486a2.111,2.111,0,0,0-1.026,1.946c-2.643-1.973-2.841,1.065-2.841,1.065-1.585-.427-.861,1.927-.861,1.927s-2.183-.467-1.881.947,2.012.855,2.012.855a1.485,1.485,0,0,0,2.177.7,3.481,3.481,0,0,1,.519.178.742.742,0,0,0,.513.8.948.948,0,0,0,.592-.02c.007.013.02.02.033.033.94,1.085,1.8,1.374,4.833,1.519a10.333,10.333,0,0,1,6.832,2.663,23.477,23.477,0,0,1,2.492,3.281c-.033.927-.059,1.854-.092,2.775a3,3,0,0,0-1.092.717,1.9,1.9,0,0,0-.94.105c-.388-2.538-2.367-1.138-2.505-1.039.072-.178,1.177-2.795-.861-3.071-2.111-.289-2.4,2.052-2.4,2.052-.71-1.282-1.138.572-1.138.572s.053-2.111-1.085-1.486a2.115,2.115,0,0,0-1.032,1.94c-2.637-1.966-2.834,1.072-2.834,1.072-1.585-.427-.861,1.927-.861,1.927s-2.183-.467-1.881.94,2.012.861,2.012.861c1.032,1.848,2.69.381,2.821.263-.026.066-.441,1.157.388,1.407.855.256,1.46-.815,1.46-.815,1.065.684,1.841-.6,1.841-.6a3.667,3.667,0,0,0,1.887,1.21c.769,2.479,2.4,5.885,5.7,7.1-.033.717-.066,1.42-.1,2.1-.533-.664-1.683-.217-1.683-.217-.46-2.992-2.795-1.335-2.959-1.217.072-.178,1.4-3.3-1.019-3.63-2.492-.342-2.828,2.42-2.828,2.42-.842-1.519-1.348.677-1.348.677s.066-2.492-1.282-1.749a2.491,2.491,0,0,0-1.217,2.288c-3.117-2.328-3.347,1.263-3.347,1.263-1.874-.506-1.013,2.275-1.013,2.275s-2.111-.454-2.249.7c-1.019.552-1.44,1.453-.888,2.354,0,0-2.446-.434-2.92.829s.566,2.9,2.92,2.282c0,0-1.065,2.071,1.545,2.308,0,0-.71,1.5.612,1.94,1.164.388,1.789-1.1,1.789-1.1s.73,3.124,3.945,1a2.209,2.209,0,0,0,2.085,1.42c.026,0,.053-.007.079-.007a17.978,17.978,0,0,0,5.313,6.549,4.327,4.327,0,0,0-.493,1.085s-.427-1.453-2.157-.789c-1.328.513-1.96,1.532-1.328,2.558,0,0-2.453-.434-2.926.829s.566,2.906,2.926,2.282c0,0-1.072,2.078,1.539,2.315,0,0-.71,1.493.612,1.933,1.164.395,1.789-1.1,1.789-1.1s.717,3.038,3.814,1.085c-.072,1.48-.171,2.959-.309,4.465-.053.539-.1,1.1-.145,1.664a53.054,53.054,0,0,0,6.01,1.065c-.125-2.288-.25-4.491-.335-6.471.848.191,1.42-.263,1.828-1.1a1.655,1.655,0,0,0,1.966-1.414s1.657,1.019,2.519-.079a2.356,2.356,0,0,0,0-2.519c.164.046,2.775.822,3.465-.4a1.636,1.636,0,0,0-.072-1.736,1.766,1.766,0,0,0,1.2-1.111,1.661,1.661,0,0,0,1.973-1.42s1.651,1.026,2.519-.079a2.33,2.33,0,0,0,0-2.512c.164.046,2.768.822,3.459-.4.71-1.263-.316-3.091-2.913-2.295Zm-35.036-42.868c-.092-.007-.184-.013-.276-.013a3.6,3.6,0,0,0,.368-.283A1.719,1.719,0,0,0,237.595,225.369Zm1.683.638a2.342,2.342,0,0,0,.25-.335c1.065.684,1.841-.6,1.841-.6a3.653,3.653,0,0,0,1.861,1.2C242.632,226.954,240.12,226.769,239.278,226.007Zm12.336,41.9c-.7.033-1.5.224-1.749.888a1.723,1.723,0,0,0-.013,1.2,11.36,11.36,0,0,1-4.787-4.84c.973.329,1.6-.125,2.045-1.032a1.665,1.665,0,0,0,1.881-1.065,2.291,2.291,0,0,0,.316-.23c.48.23,1.624.651,2.295-.2a1.348,1.348,0,0,0,.086-.118C251.641,264.37,251.621,266.165,251.615,267.908Zm.75-20.9a7.211,7.211,0,0,1-4.189-4.36,3.948,3.948,0,0,0,.986-.526,2.7,2.7,0,0,0,2.328.27,1.462,1.462,0,0,0,.973,2.216c-.033.815-.066,1.611-.1,2.4Zm2.19-24.146v-.322a2.436,2.436,0,0,0,.079.335s-.026-.007-.072-.013Zm.914,24.817c-.039-.447-.079-1.111-.125-1.96.059-.105.092-.178.092-.178s.73,3.124,3.939,1a2.26,2.26,0,0,0,1.407,1.322,6.6,6.6,0,0,1-5.169,1.756C255.567,248.877,255.521,248.226,255.468,247.674Z" transform="translate(-136.16 -92.41)" fill="#36622b"/>
                </g>
                <g transform="matrix(1, 0, 0, 1, -93.11, -74.29)" filter="url(#Trazado_678297)">
                  <path id="Trazado_678297-2" data-name="Trazado 678297" d="M360.3,268.313s.98-4.5-3.13-4.255c0,0-1.532-3.511-3.84-1.46-.046-.053-.085-.105-.132-.151-.086-.664-.585-2.433-3.544-3.025a4.869,4.869,0,0,0-.631-.079c-.6-.395-1.611-.454-3.321.309a.387.387,0,0,0-.053.026c-.066.026-.138.059-.21.092q.049-.039.158-.118c.013-.013.033-.026.053-.046.829-.638,3.446-2.828,2.229-4.412a1.523,1.523,0,0,0-.243-.256,1.576,1.576,0,0,0-1.986.053,7.127,7.127,0,0,0-1.637,1.512,2.621,2.621,0,0,0-.349-1.565,1.712,1.712,0,0,0-1.927-.533s2.9-4.781-1.769-5.116c0,0,2.584-1.144,1.992-2.782s-2.966-.289-2.966-.289.71-2.42-.756-3.472a3.155,3.155,0,0,0-3.176-.1c.053-.125,1.545-3.4-.322-3.656-1.914-.256-2.216,2.775-2.216,2.775a3.053,3.053,0,0,0-1.841.21c-.631.335-1.144,1.052-1.006,2.545,0,0-1.394-3.281-3.531-2.939-2.1.342-1.2,3.1.421,4.406-.467-.349-2.512-1.71-3.334.783a2.86,2.86,0,0,0-2.946-1.1c-1.723.559-.934,4.255-.934,4.255s-2.361-.907-2.657,1.927a3.82,3.82,0,0,0-3.2.309c-1.526.973-1.171,3.419-1.171,3.419s-2.078-1.69-2.578.934c0,0-2.486-2.3-3.387-.7s2.683,2.913,2.683,2.913-2.637-.355-1.4,2.558a2.474,2.474,0,0,0-2.545,1.591c-.7,1.8,1.637,3.275,1.637,3.275s-2.814.736-.756,2.42c-.184-.039-2.762-.644-3.4.316-.664.993.552,2.854,3.768,1.933,0,0-1.789,2.985,2.269,2.7,0,0-3.229,1.124-1.387,3.61,0,0-2.6,1.552-.927,2.814s4.333-2.716,4.333-2.716.763,2.854,3.13,1.723c-.046.145-.658,2.006.158,2.223.842.23,2.387-1.749,2.387-1.749s1.861,2.078,3.821.309a3.71,3.71,0,0,0,2.716,1.7c1.006.033,1.887-.927,2.446-1.723a36.135,36.135,0,0,1,2.091,4.189c.388,1.131.112,8.2-.395,13.816,2.065-.618,4.149-1.2,6.293-1.7-.4-4.583-.717-9.68-.256-10.936.756-2.071,4.866-6.286,6.01-7.431a1.644,1.644,0,0,0,1.585.039s.763,3.064,3.235,2.229a4.216,4.216,0,0,0,1.789-1.151,3.838,3.838,0,0,0,.96-1.914s2.624,1.236,3.025-2.163a1.369,1.369,0,0,0,1.019.316c1.078.434,2.742.789,3.479-.776a1.486,1.486,0,0,0,.1-.27,3.065,3.065,0,0,0,2.374-1.532s2.939,1.249,2.913-1.414c0,0,2.762,1.019,2.847-1.065s-2.065-1.644-2.065-1.644Zm-27.48,12.192c-.414.085-.533-1.723-.552-3.544.434.75,1.256,1.828,2.459,1.749,1.828-.112,2.558-3.137,2.558-3.137a6.506,6.506,0,0,0,.644,1.065C336.441,277.888,333.436,280.367,332.824,280.505Z" transform="translate(-161.21 -108.94)" fill="#36622b"/>
                </g>
                <g transform="matrix(1, 0, 0, 1, -93.11, -74.29)" filter="url(#Trazado_678298)">
                  <path id="Trazado_678298-2" data-name="Trazado 678298" d="M402.529,268.886c-.638-.96-3.216-.355-3.4-.316,2.058-1.683-.756-2.42-.756-2.42s2.334-1.473,1.637-3.275a2.474,2.474,0,0,0-2.545-1.591c1.236-2.913-1.4-2.558-1.4-2.558s3.577-1.322,2.683-2.913-3.387.7-3.387.7c-.5-2.624-2.578-.934-2.578-.934s.355-2.446-1.17-3.419a3.82,3.82,0,0,0-3.2-.309c-.3-2.834-2.657-1.927-2.657-1.927s.789-3.7-.934-4.255a2.86,2.86,0,0,0-2.946,1.1c-.822-2.492-2.867-1.131-3.334-.783,1.618-1.3,2.519-4.064.421-4.406-2.137-.342-3.531,2.939-3.531,2.939.138-1.493-.375-2.209-1.006-2.545a3.053,3.053,0,0,0-1.841-.21s-.3-3.031-2.216-2.775c-1.868.256-.375,3.531-.322,3.656a3.155,3.155,0,0,0-3.176.1c-1.466,1.052-.756,3.472-.756,3.472s-2.38-1.348-2.966.289,1.992,2.782,1.992,2.782c-4.669.335-1.769,5.116-1.769,5.116a1.712,1.712,0,0,0-1.927.533,2.621,2.621,0,0,0-.349,1.565,7.127,7.127,0,0,0-1.637-1.512,1.576,1.576,0,0,0-1.986-.053,1.521,1.521,0,0,0-.243.256c-1.217,1.585,1.4,3.775,2.229,4.412.02.02.039.033.053.046q.108.079.158.118c-.072-.033-.145-.066-.21-.092a.392.392,0,0,0-.053-.026c-1.71-.763-2.722-.7-3.321-.309a4.875,4.875,0,0,0-.631.079c-2.959.592-3.459,2.361-3.544,3.025-.046.046-.086.1-.132.151-2.308-2.052-3.84,1.46-3.84,1.46-4.11-.243-3.13,4.255-3.13,4.255s-2.144-.434-2.065,1.644,2.847,1.065,2.847,1.065c-.026,2.663,2.913,1.414,2.913,1.414a3.065,3.065,0,0,0,2.374,1.532,1.484,1.484,0,0,0,.1.27c.736,1.565,2.4,1.21,3.479.776a1.368,1.368,0,0,0,1.019-.316c.4,3.4,3.025,2.163,3.025,2.163a3.838,3.838,0,0,0,.96,1.914,4.217,4.217,0,0,0,1.789,1.151c2.473.835,3.235-2.229,3.235-2.229a1.644,1.644,0,0,0,1.585-.039c1.144,1.144,5.254,5.359,6.01,7.431.414,1.124.2,5.333-.132,9.5q2.87.325,5.984.888c-.381-5.109-.546-10.587-.21-11.567a36.127,36.127,0,0,1,2.091-4.189c.559.8,1.44,1.756,2.446,1.723a3.71,3.71,0,0,0,2.716-1.7c1.96,1.769,3.821-.309,3.821-.309s1.545,1.979,2.387,1.749c.815-.217.2-2.078.158-2.223,2.367,1.131,3.13-1.723,3.13-1.723s2.676,3.978,4.333,2.716-.927-2.814-.927-2.814c1.841-2.486-1.387-3.61-1.387-3.61,4.057.283,2.269-2.7,2.269-2.7,3.216.921,4.432-.94,3.768-1.933ZM372.294,280.5c-.612-.138-3.617-2.617-5.109-3.867a6.508,6.508,0,0,0,.644-1.065s.73,3.025,2.558,3.137c1.2.079,2.025-1,2.459-1.749-.02,1.822-.138,3.63-.552,3.544Z" transform="translate(-175.02 -108.94)" fill="#36622b"/>
                </g>
                <g transform="matrix(1, 0, 0, 1, -93.11, -74.29)" filter="url(#Trazado_678299)">
                  <path id="Trazado_678299-2" data-name="Trazado 678299" d="M475.584,250.312s-1.466-3.7-4.787-.671a3.608,3.608,0,0,0-1.854-4,2.823,2.823,0,0,0-3.906.973s.487-3.636-2.341-3.867-3.327,3.748-3.327,3.748-2.7-2.907-4.064,1.3a1.576,1.576,0,0,0-.085-.217c-.039-1.348-.072-2.7-.112-4.031a5.525,5.525,0,0,0,2.65-1.946c2.887,1.131,4.307-1.92,4.307-1.92s2.006.75,2.17-1.085-2.926-1.171-2.926-1.171c-.079-2.255-2.42-1.335-2.42-1.335-.585-3.847-3.676-1.506-3.676-1.506a6.243,6.243,0,0,0,.52-2.768,15.54,15.54,0,0,0,8.9-7.72,1.986,1.986,0,0,0,3.091-1.039,2.05,2.05,0,0,0,2.44-1.756s2.052,1.269,3.123-.1a2.91,2.91,0,0,0,0-3.117c.118.033,3.426,1.039,4.294-.493.881-1.565-.395-3.834-3.617-2.847,0,0-1.46-3.7-4.781-.671a3.607,3.607,0,0,0-1.854-4,2.823,2.823,0,0,0-3.906.98s.487-3.643-2.348-3.873-3.321,3.748-3.321,3.748-2.637-2.834-4.018,1.157c-.105-3.077-.217-6.51-.329-10.133a1.877,1.877,0,0,0,.473-.651s.572,2.42,3.058.776a1.716,1.716,0,0,0,1.618,1.1,1.552,1.552,0,0,0,1.44-.894c1.177.8,1.861.473,2.3-.427a1.291,1.291,0,0,0,1.453-.829,1.709,1.709,0,0,0,.25-.178c.368.178,1.256.506,1.776-.158a1.374,1.374,0,0,0,.3-.868,3.006,3.006,0,0,0,2.584,1.138,3.516,3.516,0,0,0,2.275-1.374,1.971,1.971,0,0,0,2.44-.8,2.344,2.344,0,0,0,.25-.395s1.249.467,1.355-.684-1.828-.73-1.828-.73c-.053-1.407-1.512-.835-1.512-.835-.355-2.315-2.17-1.039-2.295-.947.066-.164,1.078-2.558-.789-2.814a1.7,1.7,0,0,0-1.71.684,3.951,3.951,0,0,0-.441.059c-.053-1.407-1.512-.835-1.512-.835-.349-2.315-2.163-1.039-2.288-.947.066-.164,1.072-2.558-.789-2.814a1.925,1.925,0,0,0-2.157,1.683,1.189,1.189,0,0,0-.039.2c-.651-1.177-1.046.519-1.046.519s.053-1.927-.993-1.355a1.927,1.927,0,0,0-.94,1.775c-2.413-1.8-2.6.98-2.6.98-.592-.164-.829.105-.907.473v-.349a44.428,44.428,0,0,1,2.979-4.248,11.678,11.678,0,0,1,.809-.907,11.073,11.073,0,0,1,4.149-2.492.9.9,0,0,0,.631,1.013c1.065.322,1.808-1.006,1.808-1.006,1.322.848,2.282-.743,2.282-.743a4.078,4.078,0,0,0,3.5,1.539,4.713,4.713,0,0,0,3.077-1.854c2.446.953,3.65-1.631,3.65-1.631s1.7.638,1.835-.921-2.473-.993-2.473-.993c-.072-1.907-2.052-1.131-2.052-1.131-.48-3.143-2.939-1.4-3.11-1.276.072-.184,1.48-3.472-1.065-3.814-2.617-.355-2.972,2.545-2.972,2.545-.888-1.6-1.414.71-1.414.71s.066-2.624-1.348-1.841a2.623,2.623,0,0,0-1.276,2.407c-3.268-2.446-3.518,1.322-3.518,1.322-1.966-.526-1.059,2.394-1.059,2.394s-2.709-.585-2.341,1.164,2.5,1.065,2.5,1.065a2.563,2.563,0,0,0,.717.848,11.4,11.4,0,0,0-1.894.822,15.773,15.773,0,0,0-2.466,1.664A12.415,12.415,0,0,0,453,188.085c-.02-.539-.033-1.078-.053-1.618-.092-2.979-.178-5.931-.27-8.759a5.4,5.4,0,0,0,2.913-2c2.8,1.092,4.176-1.868,4.176-1.868s1.946.73,2.111-1.052-2.841-1.138-2.841-1.138c-.079-2.183-2.348-1.3-2.348-1.3-.565-3.728-3.571-1.46-3.571-1.46s1.657-3.689-.907-4.32c-.25-6.181-.487-10.271-.7-10.363-.579-.243-.559,2.828-.375,10.285-2.308.2-2.637,2.939-2.637,2.939-1.013-1.828-1.624.815-1.624.815s.079-3.005-1.539-2.111a2.992,2.992,0,0,0-1.46,2.755c-3.748-2.795-4.038,1.519-4.038,1.519-2.249-.6-1.21,2.736-1.21,2.736s-3.1-.664-2.676,1.341,2.854,1.217,2.854,1.217c1.519,2.736,4.018.362,4.018.362s-.671,1.644.546,2.006,2.065-1.151,2.065-1.151c1.519.973,2.617-.855,2.617-.855a4.9,4.9,0,0,0,3.406,1.808c.046,2.394.059,5.03.046,7.825-.013,2.854-.053,5.872-.105,8.976a1.216,1.216,0,0,0-.565,1.756s-1.9-.335-2.269.644.441,2.249,2.269,1.769c0,0-.592,1.138.434,1.611,0,.355-.013.71-.026,1.065a5.547,5.547,0,0,0-.6-.388c-1.2-.658-4.906-.881-7.608-2.144a17.66,17.66,0,0,1-1.716-.921,4.679,4.679,0,0,0,2.085-1.591c2.446.96,3.65-1.624,3.65-1.624s1.7.638,1.835-.921-2.473-.993-2.473-.993c-.072-1.907-2.052-1.131-2.052-1.131-.48-3.143-2.939-1.4-3.11-1.276.072-.184,1.48-3.472-1.065-3.821-2.617-.349-2.972,2.551-2.972,2.551-.888-1.6-1.414.7-1.414.7s.066-2.617-1.348-1.835a2.623,2.623,0,0,0-1.276,2.407c-3.268-2.446-3.518,1.322-3.518,1.322-1.96-.526-1.059,2.387-1.059,2.387s-2.709-.579-2.334,1.17,2.492,1.059,2.492,1.059a1.845,1.845,0,0,0,2.7.875,3.788,3.788,0,0,1,.638.21.9.9,0,0,0,.638.986,1.144,1.144,0,0,0,.73-.02l.046.046c1.157,1.341,2.229,1.7,5.984,1.874a12.772,12.772,0,0,1,8.47,3.308,28.158,28.158,0,0,1,3.091,4.064c-.033,1.151-.072,2.3-.112,3.439a3.774,3.774,0,0,0-1.355.894,2.322,2.322,0,0,0-1.164.125c-.473-3.143-2.933-1.407-3.1-1.282.072-.184,1.473-3.465-1.072-3.814-2.617-.355-2.972,2.545-2.972,2.545-.881-1.591-1.414.71-1.414.71s.072-2.617-1.341-1.841a2.612,2.612,0,0,0-1.276,2.407c-3.275-2.44-3.518,1.328-3.518,1.328-1.966-.533-1.065,2.387-1.065,2.387s-2.7-.585-2.334,1.17,2.492,1.059,2.492,1.059c1.328,2.387,3.5.316,3.5.316s-.585,1.434.48,1.756,1.8-1.013,1.8-1.013c1.328.855,2.282-.743,2.282-.743a4.562,4.562,0,0,0,2.348,1.506c.953,3.071,2.972,7.293,7.062,8.805-.039.888-.079,1.756-.118,2.6-.664-.822-2.091-.263-2.091-.263-.585-3.847-3.676-1.506-3.676-1.506s1.841-4.09-1.256-4.511-3.5,3.005-3.5,3.005c-1.046-1.881-1.67.835-1.67.835s.079-3.091-1.591-2.17a3.084,3.084,0,0,0-1.5,2.841c-3.867-2.88-4.156,1.565-4.156,1.565-2.321-.625-1.256,2.821-1.256,2.821s-2.617-.566-2.788.861c-1.263.684-1.782,1.8-1.1,2.92,0,0-3.038-.539-3.623,1.026s.7,3.6,3.623,2.828c0,0-1.322,2.578,1.914,2.867,0,0-.881,1.854.756,2.4,1.447.487,2.223-1.361,2.223-1.361s.907,3.88,4.886,1.243a2.742,2.742,0,0,0,2.584,1.756c.033,0,.072-.007.105-.007a22.188,22.188,0,0,0,6.582,8.121,5.608,5.608,0,0,0-.618,1.341s-.519-1.8-2.67-.98c-1.651.638-2.427,1.907-1.651,3.176,0,0-3.031-.539-3.617,1.026s.7,3.6,3.617,2.834c0,0-1.322,2.571,1.914,2.86,0,0-.881,1.854.763,2.4,1.44.487,2.216-1.355,2.216-1.355s.888,3.755,4.721,1.341c-.086,1.828-.2,3.663-.375,5.53-.184,1.979-.335,4.1-.454,6.26,2.736.934,5.412,1.841,8.029,2.7-.25-4.794-.559-9.561-.73-13.592,1.059.237,1.762-.322,2.269-1.361a2.049,2.049,0,0,0,2.44-1.756s2.052,1.269,3.124-.1a2.91,2.91,0,0,0,0-3.117c.118.033,3.426,1.039,4.294-.493a2.025,2.025,0,0,0-.086-2.157,2.211,2.211,0,0,0,1.493-1.381,2.057,2.057,0,0,0,2.44-1.756s2.052,1.269,3.123-.1a2.944,2.944,0,0,0,.007-3.117c.118.033,3.426,1.039,4.287-.5.881-1.558-.388-3.827-3.61-2.841Zm-43.427-53.139a3.185,3.185,0,0,0-.349-.02,4.457,4.457,0,0,0,.454-.342C432.263,196.844,432.2,196.982,432.157,197.173Zm2.085.789a2.976,2.976,0,0,0,.309-.414c1.322.848,2.282-.743,2.282-.743a4.571,4.571,0,0,0,2.3,1.493C438.4,199.132,435.288,198.909,434.242,197.962ZM449.531,249.9c-.868.046-1.861.283-2.17,1.111a2.14,2.14,0,0,0,0,1.486,14.134,14.134,0,0,1-5.945-6c1.21.408,2-.158,2.545-1.282a2.059,2.059,0,0,0,2.328-1.322,3.457,3.457,0,0,0,.388-.283c.6.289,2.012.809,2.847-.25.039-.053.072-.1.105-.151-.053,2.308-.079,4.531-.092,6.688Zm.934-25.909c-1.578-.552-3.742-1.933-5.195-5.405a4.59,4.59,0,0,0,1.23-.651,3.318,3.318,0,0,0,2.88.335s-1.118,2.163,1.2,2.749c-.039,1.006-.079,2-.118,2.972Zm2.716-29.933c0-.132,0-.263-.013-.395.046.237.1.414.1.414A.271.271,0,0,1,453.18,194.056Zm1.131,30.768c-.053-.559-.1-1.381-.158-2.426.072-.138.112-.224.112-.224s.907,3.873,4.892,1.236a2.78,2.78,0,0,0,1.736,1.637,8.157,8.157,0,0,1-6.4,2.177c-.059-.907-.118-1.716-.178-2.4Z" transform="translate(-202.1 -79.91)" fill="#36622b"/>
                </g>
              </g>
              <g id="Grupo_913610" data-name="Grupo 913610" transform="translate(52.547)">
                <g transform="matrix(1, 0, 0, 1, -68.5, -57.48)" filter="url(#Trazado_678300)">
                  <path id="Trazado_678300-2" data-name="Trazado 678300" d="M468.1,359.538c-16.676-2.683-33.839-8.483-47.615-13.448-2.972-1.072-5.728-2.025-8.3-2.86-.191-1.23-.079-2.571,1.23-2.762,2.5-.362,3.61,3.9,3.61,3.9s.552-7.279,3.189-6.444,2.111,6.352,2.111,6.352c2.144-3.643,5.353.3,5.353.3s-2.486-7.279,2.065-8.351c4.287-1.013,5.714,5.254,5.866,5.984-.132-1.013-1.565-12.4,3.433-11.928,5.228.487,5.169,9.962,5.169,9.962,3.413-5,5.326,1.506,5.432,1.881-.085-.612-1.887-13.5,4.708-10.534,6.622,2.972,4.13,14.546,4.031,15.013.243-.322,4.952-6.53,7.944-3.853,2.479,2.223-.395,6.813-1.6,8.5.815-.993,2.466-2.7,3.525-1.486.967,1.1.362,6.379-.151,9.778Z" transform="translate(-198.77 -140.2)" fill="#729d39"/>
                </g>
                <g transform="matrix(1, 0, 0, 1, -68.5, -57.48)" filter="url(#Trazado_678301)">
                  <path id="Trazado_678301-2" data-name="Trazado 678301" d="M515.41,227.957s-1.512-3.827-4.945-.7a3.729,3.729,0,0,0-1.92-4.136,2.918,2.918,0,0,0-4.038,1.006s.506-3.768-2.42-4S498.649,224,498.649,224s-2.788-3-4.2,1.341a1.439,1.439,0,0,0-.092-.224c-.033-1.387-.072-2.782-.112-4.162a5.726,5.726,0,0,0,2.742-2.012c2.979,1.164,4.445-1.986,4.445-1.986s2.071.776,2.242-1.124-3.025-1.21-3.025-1.21c-.085-2.334-2.505-1.381-2.505-1.381-.6-3.972-3.8-1.552-3.8-1.552a6.527,6.527,0,0,0,.539-2.86,16.051,16.051,0,0,0,9.2-7.983c1.578.829,2.551.256,3.2-1.072a2.129,2.129,0,0,0,2.525-1.815s2.117,1.315,3.229-.1,0-3.229,0-3.229,3.531,1.111,4.439-.506-.4-3.959-3.735-2.939c0,0-1.512-3.827-4.945-.7a3.729,3.729,0,0,0-1.92-4.136,2.918,2.918,0,0,0-4.038,1.006s.506-3.761-2.42-4-3.439,3.873-3.439,3.873-2.722-2.933-4.149,1.2c-.105-3.176-.217-6.727-.335-10.469a2.021,2.021,0,0,0,.487-.671s.585,2.505,3.156.8a1.775,1.775,0,0,0,1.67,1.138,1.62,1.62,0,0,0,1.493-.927c1.21.829,1.927.493,2.374-.441a1.331,1.331,0,0,0,1.506-.855,1.815,1.815,0,0,0,.256-.184c.388.184,1.3.526,1.841-.158a1.489,1.489,0,0,0,.309-.894,3.106,3.106,0,0,0,2.67,1.17,3.613,3.613,0,0,0,2.348-1.414,2.242,2.242,0,0,0,2.782-1.243s1.3.487,1.4-.7-1.887-.756-1.887-.756c-.053-1.46-1.565-.861-1.565-.861-.375-2.486-2.374-.973-2.374-.973s1.19-2.643-.809-2.913a1.76,1.76,0,0,0-1.769.7,3.14,3.14,0,0,0-.454.066c-.053-1.46-1.565-.861-1.565-.861-.375-2.486-2.374-.973-2.374-.973s1.19-2.643-.809-2.913-2.269,1.94-2.269,1.94c-.677-1.217-1.078.539-1.078.539s.053-2-1.026-1.4a2,2,0,0,0-.973,1.835c-2.5-1.861-2.683,1.013-2.683,1.013-.612-.164-.861.112-.94.493,0-.118-.007-.243-.013-.362a35.81,35.81,0,0,1,3.919-5.326,11.366,11.366,0,0,1,4.281-2.578.942.942,0,0,0,.658,1.052c1.1.329,1.868-1.046,1.868-1.046,1.374.875,2.361-.769,2.361-.769a4.222,4.222,0,0,0,3.623,1.591,4.877,4.877,0,0,0,3.183-1.92c2.525.986,3.768-1.683,3.768-1.683s1.756.658,1.9-.953-2.558-1.026-2.558-1.026c-.072-1.973-2.124-1.17-2.124-1.17-.513-3.367-3.216-1.315-3.216-1.315s1.611-3.584-1.1-3.952-3.071,2.63-3.071,2.63c-.914-1.644-1.46.73-1.46.73s.072-2.709-1.387-1.9A2.711,2.711,0,0,0,501.522,153c-3.38-2.525-3.636,1.374-3.636,1.374-2.032-.546-1.1,2.466-1.1,2.466s-2.795-.6-2.413,1.21,2.578,1.1,2.578,1.1a2.623,2.623,0,0,0,.743.881,12.182,12.182,0,0,0-1.96.848,15.149,15.149,0,0,0-3.663,2.768c-.112-3.65-.224-7.273-.335-10.725a5.589,5.589,0,0,0,3.018-2.065c2.893,1.131,4.314-1.927,4.314-1.927s2.012.756,2.177-1.092-2.933-1.171-2.933-1.171c-.085-2.262-2.433-1.341-2.433-1.341-.585-3.853-3.689-1.506-3.689-1.506s1.71-3.814-.94-4.465c-.256-6.392-.506-10.62-.723-10.712-.592-.256-.572,2.926-.381,10.633-2.38.21-2.729,3.038-2.729,3.038-1.046-1.887-1.677.842-1.677.842s.085-3.1-1.591-2.177a3.089,3.089,0,0,0-1.506,2.847c-3.873-2.893-4.169,1.572-4.169,1.572-2.328-.631-1.256,2.828-1.256,2.828s-3.2-.69-2.768,1.381,2.953,1.256,2.953,1.256c1.572,2.828,4.149.375,4.149.375s-.69,1.7.566,2.071,2.137-1.2,2.137-1.2c1.572,1.006,2.7-.881,2.7-.881a5.093,5.093,0,0,0,3.525,1.868c.092,5.011.059,11.014-.066,17.373a1.26,1.26,0,0,0-.585,1.815s-1.96-.349-2.341.664.454,2.328,2.341,1.828c0,0-.6,1.177.454,1.664-.007.368-.02.736-.026,1.1a5.017,5.017,0,0,0-.618-.4c-1.243-.684-5.07-.914-7.865-2.216a18.872,18.872,0,0,1-1.775-.947,4.872,4.872,0,0,0,2.157-1.644c2.525.986,3.768-1.683,3.768-1.683s1.756.658,1.9-.953-2.558-1.026-2.558-1.026c-.072-1.973-2.124-1.171-2.124-1.171-.513-3.367-3.216-1.315-3.216-1.315s1.611-3.584-1.1-3.952-3.071,2.63-3.071,2.63c-.914-1.651-1.46.73-1.46.73s.072-2.709-1.387-1.9a2.706,2.706,0,0,0-1.315,2.486c-3.38-2.525-3.636,1.374-3.636,1.374-2.032-.546-1.1,2.466-1.1,2.466s-2.795-.6-2.413,1.21,2.578,1.1,2.578,1.1a1.9,1.9,0,0,0,2.788.9,4.845,4.845,0,0,1,.664.217.926.926,0,0,0,.658,1.019,1.18,1.18,0,0,0,.756-.026l.046.046c1.2,1.387,2.308,1.756,6.188,1.94a13.2,13.2,0,0,1,8.752,3.419,29.457,29.457,0,0,1,3.2,4.2c-.039,1.19-.079,2.38-.118,3.558a3.738,3.738,0,0,0-1.394.921,2.437,2.437,0,0,0-1.2.132c-.513-3.367-3.216-1.315-3.216-1.315s1.611-3.584-1.1-3.952-3.071,2.63-3.071,2.63c-.914-1.651-1.46.73-1.46.73s.072-2.709-1.387-1.9a2.711,2.711,0,0,0-1.315,2.486c-3.38-2.525-3.636,1.374-3.636,1.374-2.032-.546-1.1,2.466-1.1,2.466s-2.795-.6-2.413,1.21,2.578,1.1,2.578,1.1c1.374,2.466,3.623.329,3.623.329s-.6,1.48.493,1.808,1.868-1.046,1.868-1.046c1.374.875,2.361-.769,2.361-.769a4.671,4.671,0,0,0,2.42,1.552c.986,3.176,3.071,7.542,7.3,9.1-.039.921-.079,1.815-.118,2.689-.69-.855-2.163-.276-2.163-.276-.6-3.972-3.8-1.552-3.8-1.552s1.9-4.228-1.3-4.662-3.63,3.1-3.63,3.1c-1.078-1.946-1.729.868-1.729.868s.086-3.2-1.637-2.242a3.176,3.176,0,0,0-1.552,2.933c-3.992-2.979-4.294,1.618-4.294,1.618-2.394-.644-1.3,2.913-1.3,2.913s-2.7-.585-2.88.888c-1.3.71-1.848,1.861-1.131,3.018,0,0-3.137-.552-3.742,1.059s.723,3.722,3.742,2.926c0,0-1.368,2.657,1.973,2.959,0,0-.907,1.92.783,2.486,1.493.5,2.295-1.407,2.295-1.407s.94,4,5.057,1.276a2.832,2.832,0,0,0,2.67,1.815h.112a22.97,22.97,0,0,0,6.806,8.4,5.564,5.564,0,0,0-.638,1.381s-.539-1.861-2.762-1.006c-1.7.658-2.512,1.966-1.7,3.281,0,0-3.137-.552-3.742,1.059s.723,3.722,3.742,2.926c0,0-1.368,2.657,1.973,2.959,0,0-.907,1.92.783,2.486,1.493.5,2.295-1.407,2.295-1.407s.914,3.886,4.879,1.387c-.086,1.894-.21,3.794-.395,5.721-1.111,12.007-1.006,29.2-1.006,29.2h8.95c.881-8.634-.421-23.64-.861-33.99,1.092.25,1.822-.329,2.341-1.4a2.129,2.129,0,0,0,2.525-1.815s2.117,1.315,3.229-.1,0-3.229,0-3.229,3.531,1.111,4.439-.506a2.085,2.085,0,0,0-.085-2.223,2.276,2.276,0,0,0,1.539-1.427,2.129,2.129,0,0,0,2.525-1.815s2.117,1.315,3.229-.1,0-3.229,0-3.229,3.531,1.111,4.439-.506-.4-3.959-3.735-2.939Zm-44.775-55.309a2.3,2.3,0,0,0-.112.381l-.362-.02A3.988,3.988,0,0,0,470.636,172.648Zm2.045,1.2a2.667,2.667,0,0,0,.316-.434c1.374.875,2.361-.769,2.361-.769a4.748,4.748,0,0,0,2.387,1.545c-.763.868-3.978.631-5.057-.342Zm20.694,25.021s.94,4,5.057,1.276a2.892,2.892,0,0,0,1.8,1.7,8.423,8.423,0,0,1-6.622,2.249c-.059-.94-.118-1.775-.184-2.479-.053-.579-.105-1.427-.164-2.512a2.5,2.5,0,0,0,.118-.23Zm-1.032-29.039s-.033-.007-.085-.013c0-.138-.007-.276-.013-.414.046.25.1.427.1.427Zm-8.259,25.337a4.939,4.939,0,0,0,1.263-.677,3.434,3.434,0,0,0,2.979.342s-1.151,2.242,1.249,2.841c-.039,1.046-.085,2.071-.125,3.077C487.825,200.181,485.583,198.747,484.083,195.163Zm-3.992,28.848c1.249.421,2.065-.158,2.624-1.322a2.135,2.135,0,0,0,2.407-1.368,2.31,2.31,0,0,0,.408-.3c.618.3,2.085.842,2.939-.256.039-.053.079-.105.112-.158-.059,2.387-.085,4.682-.092,6.911-.894.046-1.927.289-2.242,1.144a2.213,2.213,0,0,0-.013,1.539,14.623,14.623,0,0,1-6.142-6.2Z" transform="translate(-215.13 -71.15)" fill="#729d39"/>
                </g>
                <g transform="matrix(1, 0, 0, 1, -68.5, -57.48)" filter="url(#Trazado_678302)">
                  <path id="Trazado_678302-2" data-name="Trazado 678302" d="M243.289,241.5s-1.4-3.544-4.583-.644a3.448,3.448,0,0,0-1.775-3.834,2.7,2.7,0,0,0-3.742.934s.467-3.485-2.242-3.709-3.183,3.59-3.183,3.59-2.584-2.782-3.893,1.243a1.746,1.746,0,0,0-.086-.21c-.033-1.289-.066-2.578-.105-3.853a5.309,5.309,0,0,0,2.538-1.868c2.762,1.078,4.123-1.841,4.123-1.841s1.92.723,2.078-1.039-2.8-1.118-2.8-1.118c-.079-2.157-2.321-1.282-2.321-1.282-.559-3.682-3.518-1.44-3.518-1.44a6.058,6.058,0,0,0,.5-2.65,14.848,14.848,0,0,0,8.522-7.391,1.908,1.908,0,0,0,2.966-.993,1.971,1.971,0,0,0,2.341-1.683s1.966,1.217,2.992-.092a2.831,2.831,0,0,0,0-2.992s3.275,1.026,4.116-.467-.375-3.669-3.459-2.722c0,0-1.4-3.544-4.583-.644a3.448,3.448,0,0,0-1.775-3.834,2.7,2.7,0,0,0-3.742.934s.467-3.485-2.242-3.709-3.183,3.59-3.183,3.59-2.525-2.716-3.847,1.1c-.1-2.946-.2-6.234-.309-9.7a1.954,1.954,0,0,0,.454-.625s.546,2.321,2.926.743A1.636,1.636,0,0,0,227,196.346a1.491,1.491,0,0,0,1.381-.855c1.124.763,1.782.454,2.2-.408a1.237,1.237,0,0,0,1.394-.8,1.2,1.2,0,0,0,.237-.171c.355.171,1.2.487,1.7-.145a1.316,1.316,0,0,0,.283-.829,2.861,2.861,0,0,0,2.473,1.085,3.35,3.35,0,0,0,2.177-1.315,2.078,2.078,0,0,0,2.578-1.151s1.2.447,1.3-.651-1.749-.7-1.749-.7c-.053-1.348-1.453-.8-1.453-.8-.349-2.3-2.2-.9-2.2-.9s1.1-2.453-.75-2.7a1.634,1.634,0,0,0-1.637.651,3.423,3.423,0,0,0-.421.059c-.053-1.348-1.453-.8-1.453-.8-.349-2.3-2.2-.9-2.2-.9s1.1-2.453-.75-2.7-2.1,1.8-2.1,1.8c-.625-1.124-1,.5-1,.5s.053-1.848-.947-1.3a1.857,1.857,0,0,0-.9,1.7c-2.315-1.723-2.486.94-2.486.94-.566-.151-.8.1-.868.454,0-.112-.007-.224-.013-.335a33.52,33.52,0,0,1,3.63-4.932,10.487,10.487,0,0,1,3.965-2.387.867.867,0,0,0,.612.973c1.019.3,1.729-.967,1.729-.967,1.269.815,2.183-.71,2.183-.71a3.922,3.922,0,0,0,3.354,1.473,4.525,4.525,0,0,0,2.946-1.775c2.341.914,3.492-1.558,3.492-1.558s1.624.612,1.762-.881-2.374-.947-2.374-.947c-.066-1.828-1.966-1.085-1.966-1.085-.473-3.117-2.979-1.217-2.979-1.217s1.493-3.321-1.019-3.656-2.847,2.44-2.847,2.44c-.848-1.526-1.355.677-1.355.677s.066-2.505-1.289-1.762a2.5,2.5,0,0,0-1.217,2.3c-3.137-2.341-3.373,1.269-3.373,1.269-1.881-.506-1.019,2.288-1.019,2.288s-2.591-.559-2.236,1.118,2.387,1.019,2.387,1.019a2.371,2.371,0,0,0,.69.815,11.343,11.343,0,0,0-1.815.789,13.949,13.949,0,0,0-3.393,2.565c-.105-3.38-.2-6.734-.309-9.936a5.153,5.153,0,0,0,2.795-1.914c2.676,1.046,4-1.789,4-1.789s1.861.7,2.019-1.006-2.716-1.085-2.716-1.085c-.079-2.1-2.249-1.243-2.249-1.243-.546-3.571-3.413-1.4-3.413-1.4s1.585-3.531-.868-4.136c-.237-5.918-.467-9.837-.671-9.923-.552-.237-.533,2.709-.355,9.851-2.209.191-2.525,2.814-2.525,2.814-.973-1.749-1.552.776-1.552.776s.079-2.874-1.473-2.019a2.876,2.876,0,0,0-1.4,2.637c-3.59-2.676-3.86,1.453-3.86,1.453-2.157-.585-1.164,2.617-1.164,2.617s-2.972-.638-2.565,1.282,2.736,1.164,2.736,1.164c1.453,2.617,3.84.349,3.84.349s-.638,1.572.526,1.92,1.979-1.1,1.979-1.1c1.453.934,2.505-.815,2.505-.815a4.7,4.7,0,0,0,3.262,1.729c.085,4.643.053,10.2-.059,16.091a1.158,1.158,0,0,0-.539,1.677s-1.815-.322-2.17.612.421,2.157,2.17,1.7c0,0-.565,1.092.421,1.539-.007.342-.02.684-.026,1.019a4.785,4.785,0,0,0-.572-.375c-1.151-.631-4.7-.848-7.286-2.052a16.926,16.926,0,0,1-1.644-.881,4.471,4.471,0,0,0,2-1.526c2.341.914,3.492-1.558,3.492-1.558s1.624.612,1.762-.881-2.374-.947-2.374-.947c-.066-1.828-1.966-1.085-1.966-1.085-.473-3.117-2.979-1.217-2.979-1.217s1.493-3.321-1.019-3.656-2.847,2.44-2.847,2.44c-.848-1.526-1.355.677-1.355.677s.066-2.505-1.289-1.762a2.5,2.5,0,0,0-1.217,2.3c-3.137-2.341-3.373,1.269-3.373,1.269-1.881-.506-1.019,2.288-1.019,2.288s-2.591-.559-2.236,1.118,2.387,1.019,2.387,1.019a1.766,1.766,0,0,0,2.584.835,4.5,4.5,0,0,1,.618.2.858.858,0,0,0,.612.947,1.089,1.089,0,0,0,.7-.02.286.286,0,0,1,.039.046c1.111,1.282,2.137,1.624,5.734,1.8a12.2,12.2,0,0,1,8.108,3.17,27.851,27.851,0,0,1,2.959,3.893c-.033,1.1-.072,2.2-.112,3.294a3.453,3.453,0,0,0-1.3.855,2.258,2.258,0,0,0-1.118.118c-.473-3.117-2.979-1.217-2.979-1.217s1.493-3.321-1.019-3.656-2.847,2.44-2.847,2.44c-.848-1.526-1.355.677-1.355.677s.066-2.505-1.289-1.762a2.5,2.5,0,0,0-1.217,2.3c-3.137-2.341-3.373,1.269-3.373,1.269-1.881-.506-1.019,2.288-1.019,2.288s-2.591-.559-2.236,1.118,2.387,1.019,2.387,1.019c1.269,2.288,3.354.3,3.354.3s-.559,1.374.46,1.677,1.729-.967,1.729-.967c1.269.815,2.183-.71,2.183-.71a4.337,4.337,0,0,0,2.242,1.434c.914,2.946,2.847,6.983,6.767,8.437-.039.848-.072,1.683-.112,2.492-.638-.789-2-.256-2-.256-.559-3.682-3.518-1.44-3.518-1.44s1.762-3.919-1.2-4.32-3.36,2.88-3.36,2.88c-1-1.8-1.6.8-1.6.8s.079-2.959-1.519-2.078a2.967,2.967,0,0,0-1.44,2.722c-3.7-2.762-3.978,1.5-3.978,1.5-2.223-.6-1.2,2.7-1.2,2.7s-2.505-.539-2.67.822c-1.21.658-1.71,1.723-1.052,2.795,0,0-2.906-.513-3.472.98s.671,3.446,3.472,2.709c0,0-1.269,2.459,1.828,2.742,0,0-.842,1.775.73,2.3,1.381.46,2.124-1.3,2.124-1.3s.868,3.709,4.682,1.184a2.623,2.623,0,0,0,2.473,1.683h.1a21.293,21.293,0,0,0,6.306,7.779,5,5,0,0,0-.592,1.282s-.5-1.723-2.558-.934c-1.578.6-2.328,1.822-1.578,3.038,0,0-2.906-.513-3.472.98s.671,3.446,3.472,2.709c0,0-1.269,2.459,1.828,2.742,0,0-.842,1.775.73,2.3,1.381.46,2.124-1.3,2.124-1.3s.848,3.6,4.524,1.282c-.079,1.756-.2,3.511-.362,5.3-1.026,11.126-.934,27.046-.934,27.046h8.292c.815-8-.388-21.9-.8-31.492,1.006.23,1.69-.309,2.17-1.3a1.963,1.963,0,0,0,2.334-1.683s1.966,1.217,2.992-.092a2.831,2.831,0,0,0,0-2.992s3.275,1.026,4.116-.467a1.922,1.922,0,0,0-.079-2.058,2.117,2.117,0,0,0,1.427-1.322,1.971,1.971,0,0,0,2.341-1.683s1.966,1.217,2.992-.092a2.831,2.831,0,0,0,0-2.992s3.275,1.026,4.116-.467-.375-3.669-3.459-2.722Zm-41.48-51.239a2.434,2.434,0,0,0-.105.349c-.112-.007-.224-.013-.335-.013a3.321,3.321,0,0,0,.434-.335Zm1.894,1.111a2.564,2.564,0,0,0,.289-.4c1.269.815,2.183-.71,2.183-.71a4.333,4.333,0,0,0,2.209,1.427C207.681,192.486,204.7,192.269,203.7,191.368Zm19.175,23.18s.868,3.709,4.682,1.184a2.687,2.687,0,0,0,1.664,1.572,7.8,7.8,0,0,1-6.135,2.085c-.053-.868-.112-1.644-.164-2.3-.046-.539-.1-1.322-.151-2.328a1.967,1.967,0,0,0,.105-.217Zm-.96-26.908a.318.318,0,0,1-.079-.013c0-.125-.007-.256-.013-.381A3.213,3.213,0,0,0,221.918,187.639Zm-7.654,23.476a4.643,4.643,0,0,0,1.171-.625,3.172,3.172,0,0,0,2.755.316,1.738,1.738,0,0,0,1.157,2.63c-.039.967-.079,1.914-.118,2.847-1.506-.526-3.584-1.854-4.971-5.175Zm-3.7,26.724c1.157.388,1.907-.151,2.433-1.223a1.969,1.969,0,0,0,2.229-1.269,2.271,2.271,0,0,0,.375-.27c.572.276,1.927.776,2.722-.237a1.166,1.166,0,0,0,.105-.145c-.053,2.209-.079,4.34-.086,6.4-.829.039-1.782.27-2.078,1.059a2.087,2.087,0,0,0-.013,1.427A13.519,13.519,0,0,1,210.568,237.839Z" transform="translate(-123.34 -78.29)" fill="#729d39"/>
                </g>
                <g transform="matrix(1, 0, 0, 1, -68.5, -57.48)" filter="url(#Trazado_678303)">
                  <path id="Trazado_678303-2" data-name="Trazado 678303" d="M344.259,272.633s1.1-5.09-3.538-4.814c0,0-1.729-3.972-4.34-1.651a1.876,1.876,0,0,0-.151-.171c-.092-.756-.658-2.749-4-3.419a4.992,4.992,0,0,0-.71-.085c-.71-.473-1.94-.526-4.051.48.408-.3,4.294-3.17,2.755-5.169-1.618-2.111-4.366,1.48-4.366,1.48s.329-2.972-2.578-2.374c0,0,3.281-5.405-1.992-5.787,0,0,2.92-1.289,2.249-3.143s-3.354-.322-3.354-.322.8-2.736-.848-3.926a3.571,3.571,0,0,0-3.59-.112c.059-.138,1.743-3.84-.368-4.13-2.163-.289-2.505,3.137-2.505,3.137a3.413,3.413,0,0,0-2.078.237c-.717.375-1.3,1.184-1.138,2.88,0,0-1.572-3.715-3.992-3.327-2.361.375-1.348,3.5.467,4.971-.533-.395-2.834-1.907-3.761.894,0,0-1.394-1.874-3.327-1.243s-1.052,4.813-1.052,4.813-2.676-1.026-3.005,2.17a4.318,4.318,0,0,0-3.617.355c-1.716,1.1-1.315,3.86-1.315,3.86s-2.348-1.907-2.92,1.059c0,0-2.808-2.6-3.821-.8s3.031,3.3,3.031,3.3-2.985-.4-1.585,2.893a2.784,2.784,0,0,0-2.88,1.8c-.789,2.039,1.848,3.7,1.848,3.7s-3.176.835-.848,2.736c-.21-.046-3.117-.73-3.847.355-.75,1.124.631,3.229,4.261,2.19,0,0-2.019,3.373,2.565,3.058,0,0-3.643,1.263-1.565,4.077,0,0-2.939,1.749-1.052,3.176s4.9-3.064,4.9-3.064.861,3.229,3.538,1.94c-.053.171-.743,2.275.178,2.518.954.263,2.7-1.979,2.7-1.979s2.1,2.354,4.32.355a4.193,4.193,0,0,0,3.071,1.92c1.138.033,2.131-1.052,2.762-1.946a39.656,39.656,0,0,1,2.361,4.735c.631,1.854-.3,17.866-1.341,22.423l3.465.105q2.772-.72,5.293-1.348c-.5-4.485-1.861-17.6-1.039-19.846.861-2.341,5.5-7.1,6.8-8.4a1.846,1.846,0,0,0,1.789.046s.861,3.465,3.656,2.518a4.517,4.517,0,0,0,3.1-3.459s2.966,1.394,3.419-2.446a1.544,1.544,0,0,0,1.151.355c1.223.493,3.1.888,3.932-.875a2.139,2.139,0,0,0,.112-.3,3.516,3.516,0,0,0,2.689-1.736s3.314,1.414,3.281-1.6c0,0,3.124,1.151,3.222-1.2s-2.334-1.854-2.334-1.854ZM313.2,286.4c-.467.105-.6-1.946-.618-4,.48.848,1.414,2.065,2.775,1.973,2.065-.125,2.887-3.538,2.887-3.538a7.442,7.442,0,0,0,.736,1.2C317.292,283.45,313.892,286.251,313.2,286.4Z" transform="translate(-153.13 -109.11)" fill="#729d39"/>
                </g>
                <g transform="matrix(1, 0, 0, 1, -68.5, -57.48)" filter="url(#Trazado_678304)">
                  <path id="Trazado_678304-2" data-name="Trazado 678304" d="M425.429,273.923s1.1-5.09-3.538-4.813c0,0-1.729-3.972-4.34-1.651a1.873,1.873,0,0,0-.151-.171c-.092-.756-.658-2.749-4-3.419a4.992,4.992,0,0,0-.71-.086c-.71-.473-1.94-.526-4.051.48.408-.3,4.294-3.17,2.755-5.169-1.618-2.111-4.366,1.48-4.366,1.48s.329-2.972-2.578-2.374c0,0,3.281-5.405-1.992-5.787,0,0,2.92-1.289,2.249-3.143s-3.354-.322-3.354-.322.8-2.736-.848-3.926a3.571,3.571,0,0,0-3.59-.112c.059-.138,1.743-3.84-.368-4.13-2.163-.289-2.505,3.137-2.505,3.137a3.413,3.413,0,0,0-2.078.237c-.717.375-1.3,1.184-1.138,2.88,0,0-1.572-3.715-3.992-3.327-2.367.375-1.348,3.5.467,4.971-.533-.395-2.834-1.907-3.761.894,0,0-1.394-1.874-3.327-1.243s-1.052,4.813-1.052,4.813-2.676-1.026-3.005,2.17a4.318,4.318,0,0,0-3.617.355c-1.716,1.1-1.315,3.86-1.315,3.86s-2.348-1.907-2.92,1.059c0,0-2.808-2.6-3.821-.8s3.031,3.3,3.031,3.3-2.985-.4-1.585,2.893a2.784,2.784,0,0,0-2.88,1.8c-.789,2.039,1.848,3.7,1.848,3.7s-3.176.835-.848,2.736c-.21-.046-3.124-.73-3.847.355-.75,1.124.631,3.229,4.261,2.19,0,0-2.019,3.373,2.558,3.058,0,0-3.643,1.263-1.558,4.077,0,0-2.939,1.749-1.052,3.176S369.3,284,369.3,284s.861,3.229,3.538,1.94c-.053.171-.743,2.275.178,2.519.953.263,2.7-1.979,2.7-1.979s2.1,2.354,4.32.355a4.193,4.193,0,0,0,3.071,1.92c1.138.033,2.131-1.052,2.762-1.946a39.658,39.658,0,0,1,2.361,4.735c.513,1.519,0,12.5-.789,18.945q2,.552,4.169,1.223c1.309.408,2.663.842,4.07,1.315-.467-4.169-1.914-17.853-1.072-20.148.861-2.341,5.5-7.1,6.793-8.4a1.848,1.848,0,0,0,1.789.046s.868,3.465,3.663,2.519a4.517,4.517,0,0,0,3.1-3.459s2.966,1.394,3.419-2.446a1.544,1.544,0,0,0,1.151.355c1.223.493,3.1.888,3.932-.875a2.14,2.14,0,0,0,.112-.3,3.526,3.526,0,0,0,2.689-1.736s3.314,1.414,3.281-1.6c0,0,3.124,1.151,3.222-1.2s-2.334-1.854-2.334-1.854Zm-31.057,13.77c-.467.105-.6-1.946-.618-4,.48.848,1.414,2.065,2.775,1.973,2.065-.125,2.887-3.538,2.887-3.538a7.443,7.443,0,0,0,.737,1.2c-1.69,1.414-5.09,4.215-5.78,4.366Z" transform="translate(-180.93 -109.55)" fill="#729d39"/>
                </g>
                <g transform="matrix(1, 0, 0, 1, -68.5, -57.48)" filter="url(#Trazado_678305)">
                  <path id="Trazado_678305-2" data-name="Trazado 678305" d="M323.312,337.5h0c-7.845,1.447-17.15,3.985-30.17,7.352a79.094,79.094,0,0,1-25.4,2.4c-.3-.02-.6-.046-.907-.072-.059-1.69.053-3.077.5-3.59,1.052-1.21,2.7.48,3.511,1.48-1.2-1.7-4.057-6.273-1.585-8.489,2.992-2.676,7.7,3.531,7.944,3.853-.1-.467-2.591-12.034,4.024-15.013,6.6-2.959,4.8,9.923,4.715,10.534.105-.375,2.012-6.885,5.425-1.881,0,0-.053-9.476,5.175-9.962,4.873-.447,3.63,10.377,3.446,11.836.237-1.039,1.7-6.872,5.852-5.892,4.544,1.072,2.065,8.351,2.065,8.351s3.209-3.945,5.346-.3c0,0-.52-5.517,2.117-6.352s3.189,6.444,3.189,6.444,1.111-4.261,3.6-3.9c1.466.21,1.434,1.867,1.157,3.2Z" transform="translate(-149.02 -138.08)" fill="#729d39"/>
                </g>
              </g>
              <g id="Grupo_913613" data-name="Grupo 913613" transform="translate(17.302 6.653)">
                <g id="Grupo_913611" data-name="Grupo 913611" transform="translate(151.308 19.947)">
                  <path id="Trazado_678306" data-name="Trazado 678306" d="M387.758,220.57a10.451,10.451,0,0,1-2.887,2.242c-1.092.335-2.782,1.808-1.71,3.406s2.085.322,2.085.322-1.591-.467-.533-1.374c0,0,1.052,1.835,2.045,1.177,0,0-1.716-.723-.94-2.1a1.128,1.128,0,0,0,.289-1.065l3.8-1.3-2.15-1.3Z" transform="translate(-373.298 -186.711)" fill="url(#linear-gradient)"/>
                  <path id="Trazado_678307" data-name="Trazado 678307" d="M377.568,193.043s-3.071-4-3.623-7.628,2.466-9.107,2.2-11.245c0,0,2.742,1.263,1.427,6.142l1.973-4.169a7.652,7.652,0,0,1,1.039,7.023l1.374-2.63a4.547,4.547,0,0,1,0,4.445s1.539,5.155,6.471,3.84l-4.333,8.555s-4.491-1.1-6.53-4.333Z" transform="translate(-370.236 -170.823)" fill="url(#linear-gradient-2)"/>
                  <path id="Trazado_678308" data-name="Trazado 678308" d="M409.952,177.346l-4.754,2.709s5.852-4.61,4.169-9.292l-6.655,6.214s5.123-4.971,3.216-7.9l-6.418,6.826c1.131-1.282,3.577-4.478,2.032-6.826l-6.655,8.529c.677-.934,1.986-3.11,1.1-4.945,0,0-2.63,8.627-7.825,11.922s-7.753,4.458-6,7.825c0,0-6.438-4.386-9.581-1.387,0,0-3.511.289-4.241,2.045h1.243a5.238,5.238,0,0,0,3.216.368s4.564,8.207,11.264,10.58a7.255,7.255,0,0,1-1.387,2.223c-.875.73-1.868,2.742-.256,3.8s2.045-.513,2.045-.513-1.644.184-1.026-1.059c0,0,1.683,1.282,2.341.289,0,0-1.868,0-1.683-1.572a1.145,1.145,0,0,0-.145-1.1l1.808-1.611a10.1,10.1,0,0,0,6.05-.73s5.78,6.582,7.97,6.655c1.335.046,1.315-.217,1.315-.217a2.644,2.644,0,0,0,3.413.335l-15.92-12.843s8.923-2.558,9.726-5.267a3.264,3.264,0,0,0,2.413-3.584s5.044-1.17,5.123-5.412c0,0,4.61-1.539,4.1-6.069Z" transform="translate(-368.34 -169.08)" fill="url(#linear-gradient-3)"/>
                </g>
                <g transform="matrix(1, 0, 0, 1, -33.25, -64.13)" filter="url(#Trazado_678309)">
                  <path id="Trazado_678309-2" data-name="Trazado 678309" d="M568,224.872a5.122,5.122,0,0,0-1.3.664,8.67,8.67,0,0,0,.572-2.078c.178-1.3-.033-2.788-1.789-3.156-.086-.02-.171-.033-.263-.046a3.2,3.2,0,0,0-3.209,1.276,7.579,7.579,0,0,0-.822.112c-.1-2.643-2.841-1.565-2.841-1.565-.684-4.5-4.307-1.762-4.307-1.762s2.157-4.8-1.466-5.294-4.116,3.525-4.116,3.525c-1.223-2.2-1.96.986-1.96.986s.1-3.63-1.861-2.551a3.624,3.624,0,0,0-1.762,3.334c-4.531-3.38-4.873,1.835-4.873,1.835-2.716-.736-1.466,3.308-1.466,3.308s-3.071-.664-3.268,1.006c-1.48.8-2.1,2.111-1.289,3.426,0,0-.138-.026-.368-.053a2.164,2.164,0,0,0-1.821-1.1,3.038,3.038,0,0,0-2.6,1.539,4.143,4.143,0,0,0-2.722-.454c-.086-2.111-.191-3.906-.309-5.221-.092-1.013-.184-2.953-.276-5.55l7.023-4.07c10.942,2.038,16.308-3.124,18.649-6.72a3.262,3.262,0,0,0,2.137.467,3.081,3.081,0,0,0,1.94-.914q-2.15-1.983-4.5-3.775c-6.168-4.7-9.9-8.8-12.073-12.685a4.728,4.728,0,0,0-.27.743c-2.676-1.276-2.15,3.137-2.15,3.137s-3.722-1.545-3.65,1.059a2.018,2.018,0,0,0,.756,1.631,1.723,1.723,0,0,0-.75,1.013c-.513,1.979,1.315,4.294,4.774,2.985a2.8,2.8,0,0,0,.118,2.275c-2.834,4.57-9.213,7.6-12.185,8.812-.118-4.478-.243-9.8-.368-15.341a2.115,2.115,0,0,0,2.183-.69,3.173,3.173,0,0,0,.243-3.2q.237-.138.493-.3c1.21.263,3.577.585,4.333-.763a2.357,2.357,0,0,0-.3-2.782.289.289,0,0,0,.039-.046,12.821,12.821,0,0,0,5.622-.789,19.974,19.974,0,0,1-.888-2.6,12.221,12.221,0,0,1-2.492-.125,18.767,18.767,0,0,0,1.368-4.064,3.4,3.4,0,0,0,.506.572c-.414-4.971.769-10.068,1.572-16.157-1.052-.421-2.466-.3-3.373,2.5,0,0-.618-2.124-3.15-1.151-1.946.75-2.867,2.249-1.946,3.742,0,0-3.577-.631-4.274,1.21s.829,4.248,4.274,3.34c0,0-1.558,3.031,2.255,3.38,0,0-1.039,2.19.894,2.834a1.826,1.826,0,0,0,.4.085c-.914,2.466-2.42,5.09-4.879,6.464-.316-.618-1.322-2.236-3.124-1.92-.171-7.477-.355-14.6-.546-19.833a2.677,2.677,0,0,0,1.631-1.6,2.412,2.412,0,0,0,2.729-1.552,2.641,2.641,0,0,0,.46-.329c.7.335,2.361.947,3.334-.289a2.62,2.62,0,0,0,.559-1.631c.086.105,2.039,2.558,4.846,2.124l.224-.039a60.63,60.63,0,0,0-.355-15.7c-.02-.118-.039-.23-.053-.349h-.013a3.194,3.194,0,0,0-3.209,1.276,7.584,7.584,0,0,0-.822.112c-.1-2.643-2.841-1.565-2.841-1.565-.684-4.5-4.307-1.762-4.307-1.762s2.15-4.8-1.473-5.287-4.11,3.518-4.11,3.518c-1.223-2.2-1.96.986-1.96.986s.1-3.623-1.861-2.551a3.624,3.624,0,0,0-1.762,3.334c-4.531-3.38-4.873,1.835-4.873,1.835-2.716-.736-1.473,3.308-1.473,3.308s-3.064-.664-3.268,1.006c-1.48.8-2.091,2.111-1.282,3.426,0,0-3.564-.631-4.248,1.2s.822,4.222,4.248,3.321c0,0-1.552,3.018,2.236,3.36,0,0-1.026,2.177.894,2.814,1.69.566,2.6-1.591,2.6-1.591s1.065,4.537,5.734,1.447a3.215,3.215,0,0,0,3.025,2.058,2.925,2.925,0,0,0,2.709-1.677,5.214,5.214,0,0,0,1.545.763c.053,3.275.138,7.575.2,13.04.026,2.275.013,4.794-.026,7.47a7.29,7.29,0,0,0-.907.717,4.258,4.258,0,0,0-2.19-4.721,3.336,3.336,0,0,0-4.61,1.151,6.088,6.088,0,0,0,0-1.374,2.059,2.059,0,0,0,2.006-.717c1.263-1.618,0-3.689,0-3.689s4.031,1.269,5.063-.572-.46-4.518-4.261-3.354c0,0-1.729-4.366-5.642-.8a4.258,4.258,0,0,0-2.19-4.721,3.336,3.336,0,0,0-4.61,1.151s.579-4.294-2.762-4.57-3.919,4.426-3.919,4.426-3.183-3.426-4.794,1.526c0,0-.618-2.124-3.15-1.151-1.946.75-2.874,2.249-1.946,3.742,0,0-3.584-.631-4.274,1.21s.829,4.248,4.274,3.34c0,0-1.565,3.031,2.249,3.38,0,0-1.032,2.19.9,2.834,1.7.566,2.617-1.6,2.617-1.6s.8,3.419,4.064,2.328a2.064,2.064,0,0,0-.2,2.584s-3.584-.631-4.274,1.21.829,4.248,4.274,3.34a2.713,2.713,0,0,0-.125,2.19c-.921-.585-2.295-.71-4.182,1.013a4.258,4.258,0,0,0-2.19-4.721,3.327,3.327,0,0,0-4.61,1.151s.579-4.294-2.762-4.57-3.926,4.426-3.926,4.426-3.183-3.426-4.794,1.526c0,0-.618-2.124-3.15-1.151-1.946.75-2.867,2.242-1.946,3.742,0,0-3.577-.631-4.268,1.21s.829,4.248,4.268,3.341c0,0-1.558,3.031,2.255,3.38,0,0-1.032,2.19.894,2.834,1.7.566,2.617-1.6,2.617-1.6s.809,3.426,4.077,2.321c.086,1.729,1.861,3.314,4.853,2.177,0,0-1.282,3.3,2.689,3.242,0,0-.829,2.367,1.236,2.828,1.821.4,2.525-1.946,2.525-1.946s1.6,4.6,6.109.881a3.36,3.36,0,0,0,3.367,1.808,3.071,3.071,0,0,0,2.63-2.045c.243.132.48.243.7.335,3.893,7.707,12.139,10.409,16.2,11.3-.1,1.532-.2,3-.289,4.379a4.568,4.568,0,0,0-1.5,2.374c-2.67-1.276-2.144,3.137-2.144,3.137s-3.722-1.545-3.65,1.059a2,2,0,0,0,.756,1.631,1.723,1.723,0,0,0-.75,1.013c-.513,1.979,1.315,4.294,4.767,2.979,0,0-1.052,2.722,1.729,3.176q-.039,1.983-.059,3.886c-3.327.1-8.9-.434-11.389-4.656l.546-8.259a2.247,2.247,0,0,0,2.328-.934,4.568,4.568,0,0,0,.513-3.63s2.071.151,2.551-1.427c.644-2.1-.4-3.8-3.064-2.893,0,0-2.255-4.314-5.912-.2,0,0,.7-4.011-2.768-4.629-1.565-.283-2.019.3-2.019.3s-.23-2.078-1.341-2.44a2.279,2.279,0,0,0-2.578.921,2.3,2.3,0,0,0-2.045-1.506,3.046,3.046,0,0,0-2.6,1.532c-3.268-1.493-4.629.408-3.8,2.591l-.079.02c-3.992-4.222-5.326,1.046-5.326,1.046-2.67-1.276-2.144,3.143-2.144,3.143s-3.722-1.545-3.65,1.059a1.985,1.985,0,0,0,.756,1.624,1.8,1.8,0,0,0-.756,1.019c-.506,1.973,1.322,4.287,4.774,2.979,0,0-1.282,3.3,2.7,3.242,0,0-.829,2.367,1.236,2.821,1.815.4,2.525-1.94,2.525-1.94s1.6,4.6,6.109.881a3.35,3.35,0,0,0,3.367,1.8,3.033,3.033,0,0,0,2.039-1.032c2.624,4.6,9.193,13.665,19.964,13.362a133.151,133.151,0,0,1-.809,14.269c-1.3,10.778-1.387,26.231-1.387,26.231l9.4.118c1.072-8.128-.3-22.6-.565-31.906,0-.263-.013-.533-.026-.815,7.569-2.847,10.738-9.561,12.06-14.355,1.361.2,2.183-.579,2.67-1.933a2.513,2.513,0,0,0,2.742-2.453s2.663,1.282,3.794-.52a4.4,4.4,0,0,0,.644-1.808,2.915,2.915,0,0,0,2.078-1.618c2.2,1.5,3.492.894,4.314-.8a2.409,2.409,0,0,0,2.729-1.552,2.642,2.642,0,0,0,.46-.329c.7.335,2.361.947,3.341-.3a2.581,2.581,0,0,0,.552-1.624c.086.105,2.045,2.558,4.846,2.124a6.541,6.541,0,0,0,4.261-2.571,3.742,3.742,0,0,0,2.084.237,65.733,65.733,0,0,0-3.768-9.134Zm-29.663-20.214a1.615,1.615,0,0,0,1.361,1.328c1.822.4,2.525-1.94,2.525-1.94s1.184,3.393,4.373,1.992c-4.2,4.215-12.553,3.308-12.553,3.308A10.423,10.423,0,0,0,538.332,204.658Zm-39.139-9.384a3.569,3.569,0,0,0-.263-.467c.184.039.388.066.6.092a3.133,3.133,0,0,0-.342.375Zm3.913,1.519s-.026-.217-.092-.526c.039-.085.066-.138.066-.138a3.643,3.643,0,0,0,.184.533.679.679,0,0,0-.158.132Zm1.815,45.038s-1.1-1.019-2.3-2.374a3.427,3.427,0,0,0,.967-1.519,2.982,2.982,0,0,0,1.71-.454Zm3.926-44.242a3.317,3.317,0,0,0,1.69,1.8,4.771,4.771,0,0,0-2.637,1.743,5.435,5.435,0,0,0-.342-2.834,8.286,8.286,0,0,0,1.289-.7Zm11.218,23a17.522,17.522,0,0,1-13.691-6.885,3.47,3.47,0,0,0,.894-1.453,2.521,2.521,0,0,0,2.749-2.453s2.657,1.282,3.788-.519a4.568,4.568,0,0,0,.513-3.63s2.071.151,2.558-1.427c.638-2.1-.4-3.794-3.064-2.893a4.443,4.443,0,0,0-1.657-1.677,2.941,2.941,0,0,0,2.459-1.677c2.216,1.512,3.511.9,4.34-.8a2.591,2.591,0,0,0,2.341-.8C520.992,204.467,520.525,213.068,520.065,220.584Zm5.024,36c-.026-1.223-.046-2.519-.066-3.867,2.38-.4,3.433-.585,3.663-.644-.3.026-2.045.3-3.663.552-.026-1.545-.053-3.163-.079-4.813.973.6,2.453.7,4.59-1.059a3.35,3.35,0,0,0,3.367,1.808,3.449,3.449,0,0,0,.8-.184A25.045,25.045,0,0,1,525.089,256.587Z" transform="translate(-216.94 -74.61)" fill="#b4cc5c"/>
                </g>
                <g transform="matrix(1, 0, 0, 1, -33.25, -64.13)" filter="url(#Trazado_678310)">
                  <path id="Trazado_678310-2" data-name="Trazado 678310" d="M227.954,238.5c-.1-2.643-2.841-1.565-2.841-1.565-.684-4.5-4.307-1.762-4.307-1.762s2.157-4.8-1.466-5.287a3.2,3.2,0,0,0-3.216,1.269,8.2,8.2,0,0,0-.815.118c-.1-2.643-2.841-1.565-2.841-1.565-.69-4.5-4.314-1.762-4.314-1.762s2.157-4.8-1.466-5.294-4.116,3.525-4.116,3.525c-1.223-2.2-1.953.98-1.953.98s.092-3.623-1.861-2.545a3.637,3.637,0,0,0-1.769,3.334c-4.524-3.38-4.873,1.835-4.873,1.835-2.716-.736-1.466,3.3-1.466,3.3s-3.071-.658-3.268,1.013c-1.48.8-2.091,2.111-1.289,3.419,0,0-.138-.02-.368-.046a2.139,2.139,0,0,0-1.815-1.1,3.049,3.049,0,0,0-2.6,1.532,4.169,4.169,0,0,0-2.722-.447c-.085-2.111-.184-3.906-.309-5.221-.092-1.013-.178-2.959-.27-5.55l7.016-4.07c10.942,2.038,16.315-3.124,18.649-6.72a3.272,3.272,0,0,0,2.144.467,3.054,3.054,0,0,0,2.624-2.038c2.453,1.315,3.722.539,4.393-1.309a2.508,2.508,0,0,0,2.742-2.453s2.657,1.282,3.788-.519a4.536,4.536,0,0,0,.513-3.63s2.071.158,2.558-1.427c.638-2.1-.4-3.794-3.064-2.887,0,0-2.262-4.314-5.912-.2,0,0,.7-4.018-2.775-4.636-1.565-.276-2.019.3-2.019.3s-.23-2.078-1.335-2.44a2.285,2.285,0,0,0-2.578.921,2.309,2.309,0,0,0-2.045-1.506,3.054,3.054,0,0,0-2.6,1.539c-3.268-1.493-4.623.408-3.8,2.584-.026.007-.046.02-.072.026-4-4.228-5.326,1.046-5.326,1.046-2.67-1.276-2.15,3.137-2.15,3.137s-3.722-1.545-3.65,1.059a2.037,2.037,0,0,0,.756,1.631,1.722,1.722,0,0,0-.75,1.013c-.513,1.979,1.315,4.294,4.774,2.979a2.815,2.815,0,0,0,.118,2.282c-2.834,4.57-9.213,7.6-12.178,8.812-.125-4.478-.243-9.8-.368-15.341a2.122,2.122,0,0,0,2.183-.69,3.185,3.185,0,0,0,.237-3.2q.237-.138.493-.3c1.21.263,3.577.585,4.333-.763a2.365,2.365,0,0,0-.289-2.782c.013-.013.02-.033.033-.046a13.766,13.766,0,0,0,11.8-5.386,2.945,2.945,0,0,0,2.722-1.69c2.216,1.512,3.511.894,4.34-.809a2.425,2.425,0,0,0,2.88-2.071s2.42,1.5,3.682-.112,0-3.689,0-3.689,4.038,1.269,5.07-.579-.46-4.518-4.261-3.354c0,0-1.729-4.36-5.642-.789a4.258,4.258,0,0,0-2.19-4.721,3.327,3.327,0,0,0-4.61,1.151s.579-4.3-2.762-4.57-3.926,4.426-3.926,4.426-3.176-3.426-4.794,1.526c0,0-.618-2.124-3.143-1.151-1.946.75-2.874,2.242-1.946,3.742,0,0-3.584-.631-4.274,1.21s.829,4.248,4.274,3.341c0,0-1.565,3.031,2.249,3.38,0,0-1.032,2.19.9,2.834a1.7,1.7,0,0,0,.395.085c-.907,2.459-2.413,5.09-4.879,6.464-.316-.618-1.315-2.236-3.123-1.927-.171-7.47-.349-14.6-.546-19.826a2.7,2.7,0,0,0,1.631-1.6,2.409,2.409,0,0,0,2.729-1.552,2.362,2.362,0,0,0,.46-.335c.7.342,2.361.953,3.334-.289a2.59,2.59,0,0,0,.559-1.624c.086.105,2.045,2.558,4.846,2.124a6.541,6.541,0,0,0,4.261-2.571c3.38,1.322,5.044-2.249,5.044-2.249s2.348.881,2.545-1.276-3.426-1.374-3.426-1.374c-.1-2.643-2.841-1.565-2.841-1.565-.684-4.5-4.307-1.762-4.307-1.762s2.15-4.8-1.473-5.287a3.188,3.188,0,0,0-3.209,1.276q-.2.02-.355.039c-.283.033-.467.072-.467.072-.1-2.643-2.841-1.565-2.841-1.565-.684-4.5-4.307-1.762-4.307-1.762s1.854-4.13-.763-5.116a95.91,95.91,0,0,0-21.6,20.326c-.072.894.3,2.038,2.545,2.242,0,0-1.032,2.177.888,2.814,1.69.566,2.6-1.6,2.6-1.6s1.065,4.544,5.728,1.453a3.328,3.328,0,0,0,1.131,1.46,3.1,3.1,0,0,0,1.9.6,2.921,2.921,0,0,0,2.7-1.677,5.292,5.292,0,0,0,1.545.763c.053,3.275.138,7.575.2,13.04.033,2.275.02,4.787-.026,7.47a7.285,7.285,0,0,0-.907.717,4.247,4.247,0,0,0-2.19-4.721,3.321,3.321,0,0,0-4.6,1.151,6.594,6.594,0,0,0,0-1.374,2.059,2.059,0,0,0,2.006-.717c1.263-1.618,0-3.689,0-3.689s4.031,1.269,5.07-.579-.467-4.518-4.268-3.354c0,0-1.723-4.36-5.642-.789a4.088,4.088,0,0,0,.092-.736h0a4.13,4.13,0,0,0-2.282-3.985,3.321,3.321,0,0,0-4.6,1.151s.572-4.3-2.768-4.57-3.919,4.426-3.919,4.426a4.616,4.616,0,0,0-1.1-.829,85.807,85.807,0,0,0-6.8,14.276,1.537,1.537,0,0,0,1.164,1.434c1.7.566,2.617-1.6,2.617-1.6s.8,3.419,4.064,2.321a2.083,2.083,0,0,0-.2,2.591s-3.584-.631-4.274,1.21.829,4.248,4.274,3.341a2.7,2.7,0,0,0-.118,2.19c-.927-.585-2.3-.71-4.189,1.013a4.258,4.258,0,0,0-2.19-4.721,3.179,3.179,0,0,0-3.61.1,92.1,92.1,0,0,0-2.893,18.688h.007a.15.15,0,0,0-.007.026,3.11,3.11,0,0,0-.079,1.8c.237.75.953,1.434,2.788,1.407,0,0-.835,2.367,1.23,2.821,1.822.4,2.525-1.94,2.525-1.94s1.6,4.6,6.109.881a3.137,3.137,0,0,0,.427.631,3.27,3.27,0,0,0,2.946,1.171,3.044,3.044,0,0,0,2.624-2.039,7.463,7.463,0,0,0,.7.335c3.886,7.707,12.132,10.409,16.19,11.3-.1,1.532-.2,3-.289,4.379a4.506,4.506,0,0,0-1.493,2.367c-2.676-1.276-2.15,3.143-2.15,3.143s-3.722-1.545-3.65,1.059a2,2,0,0,0,.756,1.624,1.757,1.757,0,0,0-.75,1.019c-.513,1.973,1.315,4.287,4.774,2.979,0,0-1.059,2.722,1.723,3.176q-.039,1.983-.059,3.886c-3.327.1-8.9-.434-11.389-4.656l.546-8.259a2.251,2.251,0,0,0,2.328-.94,4.552,4.552,0,0,0,.513-3.623s2.071.151,2.551-1.427c.644-2.1-.395-3.8-3.064-2.893,0,0-2.255-4.314-5.905-.2,0,0,.7-4.018-2.775-4.629-1.565-.283-2.019.3-2.019.3s-.23-2.078-1.341-2.44a2.056,2.056,0,0,0-.776-.112,2.426,2.426,0,0,0-1.8,1.026,2.312,2.312,0,0,0-2.045-1.5,3.035,3.035,0,0,0-2.6,1.532c-3.268-1.493-4.629.408-3.8,2.584a.372.372,0,0,1-.079.026,4.72,4.72,0,0,0-2.5-1.624,114.755,114.755,0,0,0,2.551,16.788c.039-.105.059-.171.059-.171s1.6,4.6,6.109.875a3.35,3.35,0,0,0,3.367,1.808,3.033,3.033,0,0,0,2.038-1.032,33.538,33.538,0,0,0,5.326,7.049c3.472,3.459,8.338,6.49,14.644,6.313a137.638,137.638,0,0,1-.8,14.131,65.532,65.532,0,0,0,8.049,7.391c-.23-4.6-.513-9.114-.618-12.81,0-.263-.013-.533-.02-.815,7.562-2.847,10.732-9.561,12.053-14.355,1.368.2,2.183-.579,2.67-1.933a2.521,2.521,0,0,0,2.749-2.453s2.657,1.282,3.788-.52a4.432,4.432,0,0,0,.644-1.808,2.935,2.935,0,0,0,2.085-1.618c2.2,1.5,3.485.894,4.307-.8a2.418,2.418,0,0,0,2.736-1.552,2.579,2.579,0,0,0,.46-.335c.7.342,2.361.953,3.334-.289a2.63,2.63,0,0,0,.559-1.624c.079.105,2.039,2.558,4.84,2.124a6.541,6.541,0,0,0,4.261-2.571c3.38,1.322,5.044-2.249,5.044-2.249s2.354.881,2.551-1.276-3.433-1.374-3.433-1.374Zm-35.5-24.219a1.6,1.6,0,0,0,1.355,1.335c1.822.4,2.525-1.94,2.525-1.94s1.184,3.393,4.373,1.986c-4.2,4.222-12.553,3.314-12.553,3.314A10.456,10.456,0,0,0,192.451,214.282Zm-4.393-24.344c.737,1.046,2.255,2.032,5.142.125a3.373,3.373,0,0,0,1.341,1.618c-2.361,2.663-5.826,2.63-7.858,2.315a18.937,18.937,0,0,0,1.374-4.057Zm-34.753,14.967a3.184,3.184,0,0,0-.263-.467,5.157,5.157,0,0,0,.6.085A3.817,3.817,0,0,0,153.306,204.905Zm3.913,1.519a4.246,4.246,0,0,0-.092-.526c.039-.085.066-.138.066-.138a3.644,3.644,0,0,0,.184.533.68.68,0,0,0-.158.132Zm1.815,45.038s-1.1-1.019-2.3-2.374a3.428,3.428,0,0,0,.967-1.519,2.973,2.973,0,0,0,1.71-.454Zm3.926-44.242a3.338,3.338,0,0,0,1.69,1.8,4.789,4.789,0,0,0-2.637,1.736,5.45,5.45,0,0,0-.335-2.828,8.5,8.5,0,0,0,1.282-.7Zm11.218,22.989a17.518,17.518,0,0,1-13.691-6.878,3.522,3.522,0,0,0,.9-1.453,2.513,2.513,0,0,0,2.742-2.453s2.657,1.282,3.788-.519a4.537,4.537,0,0,0,.513-3.63s2.071.151,2.558-1.427c.638-2.1-.4-3.8-3.064-2.893a4.443,4.443,0,0,0-1.657-1.677,2.941,2.941,0,0,0,2.459-1.677c2.216,1.512,3.518.894,4.34-.809a2.568,2.568,0,0,0,2.341-.8c-.3,8.1-.763,16.709-1.23,24.219Zm5.024,36.009c-.02-1.223-.046-2.519-.066-3.867,2.387-.4,3.439-.592,3.663-.644-.309.026-2.052.3-3.663.552-.026-1.545-.053-3.163-.079-4.813.973.6,2.453.7,4.59-1.059a3.36,3.36,0,0,0,3.367,1.808,3.448,3.448,0,0,0,.8-.184A24.988,24.988,0,0,1,179.2,266.218Z" transform="translate(-104.99 -77.99)" fill="#b4cc5c"/>
                </g>
                <g id="Grupo_913612" data-name="Grupo 913612" transform="translate(123.69 134.971)">
                  <path id="Trazado_678311" data-name="Trazado 678311" d="M331.62,358.235c-.855.178-1.716.362-2.578.552-.349-1.874-1.1-3.867-2.7-4.767C326.34,354.02,329.444,354.316,331.62,358.235Z" transform="translate(-326.34 -347.431)" fill="#b4cc5c"/>
                  <path id="Trazado_678312" data-name="Trazado 678312" d="M337.138,348.59s-1.822,2.676-.256,7.286q-1.016.2-2.032.414C334.356,353.634,334.244,349.846,337.138,348.59Z" transform="translate(-329.161 -345.572)" fill="#b4cc5c"/>
                  <path id="Trazado_678313" data-name="Trazado 678313" d="M344.663,351.53a16.2,16.2,0,0,0,2.177,4.162c-.743.112-1.486.243-2.229.375Z" transform="translate(-332.596 -346.578)" fill="#b4cc5c"/>
                  <path id="Trazado_678314" data-name="Trazado 678314" d="M359.906,353.492c-.566.039-1.131.085-1.7.138-.02-1.677-.388-4.09-2.2-5.3C356,348.33,359.459,348.8,359.906,353.492Z" transform="translate(-336.496 -345.483)" fill="#b4cc5c"/>
                  <path id="Trazado_678315" data-name="Trazado 678315" d="M366.424,344s-2.5,1.789-1.94,7.871c-.783.026-1.578.072-2.374.132C362.307,349.662,363.11,344.776,366.424,344Z" transform="translate(-338.588 -344)" fill="#b4cc5c"/>
                  <path id="Trazado_678316" data-name="Trazado 678316" d="M372.609,354.185c-.756-.046-1.519-.072-2.288-.072a4.4,4.4,0,0,0-1.151-3.452A4.755,4.755,0,0,1,372.609,354.185Z" transform="translate(-341.006 -346.281)" fill="#b4cc5c"/>
                  <path id="Trazado_678317" data-name="Trazado 678317" d="M382.65,346.66s-1.335,2.479-.178,6.78c-.763-.105-1.519-.2-2.262-.289C380.263,351.033,380.7,347.877,382.65,346.66Z" transform="translate(-344.786 -344.911)" fill="#b4cc5c"/>
                  <path id="Trazado_678318" data-name="Trazado 678318" d="M391.154,356.6c-.546-.105-1.085-.2-1.618-.289a4.92,4.92,0,0,0-1.2-3.242A4.291,4.291,0,0,1,391.154,356.6Z" transform="translate(-347.57 -347.106)" fill="#b4cc5c"/>
                  <path id="Trazado_678319" data-name="Trazado 678319" d="M397.562,350.5s-2.137,1.539-2.86,5.6c-.618-.125-1.23-.243-1.841-.355.224-2.2,1.19-5.155,4.7-5.247Z" transform="translate(-349.118 -346.226)" fill="#b4cc5c"/>
                  <path id="Trazado_678320" data-name="Trazado 678320" d="M413.327,360.9c-.651-.158-1.3-.316-1.933-.467a7.936,7.936,0,0,0-1.874-4.419C409.7,356.056,412.315,356.911,413.327,360.9Z" transform="translate(-354.823 -348.112)" fill="#b4cc5c"/>
                  <path id="Trazado_678321" data-name="Trazado 678321" d="M423.829,352.159s-4.7,1.059-4.958,8.279c-1.032-.263-2.058-.526-3.071-.776C416.155,357.433,417.661,352.054,423.829,352.159Z" transform="translate(-356.973 -346.793)" fill="#b4cc5c"/>
                  <path id="Trazado_678322" data-name="Trazado 678322" d="M448.621,367.205q-4.794-1.282-9.528-2.565c-.362-3.36-1.289-8.075-3.663-7.97,0,0,4.708-1.118,5.859,6.267,0,0,.493-9.634,8.055-8.937,0,0-5.892,3.367-3.847,11.731,0,0,1.874-5.432,5.162-5.767,0,0-2.722,1.815-2.039,7.24Z" transform="translate(-363.695 -347.412)" fill="#b4cc5c"/>
                </g>
              </g>
              <g id="Grupo_913614" data-name="Grupo 913614" transform="translate(30.729 128.966)">
                <path id="Trazado_678323" data-name="Trazado 678323" d="M343.4,372.475c-2.2.329-4.419.723-6.674,1.19.145-2.2.8-6.168,3.676-6.056C342.5,367.688,343.424,369.95,343.4,372.475Z" transform="translate(-219.635 -339.426)" fill="#f7ea9f"/>
                <g transform="matrix(1, 0, 0, 1, -46.68, -186.44)" filter="url(#Trazado_678324)">
                  <path id="Trazado_678324-2" data-name="Trazado 678324" d="M275.321,363.774a182.559,182.559,0,0,0-17.906,4.846c-21.174,6.773-52.725,7.194-76.726-6.951a64.735,64.735,0,0,1-22.029-21.128,5.969,5.969,0,0,1,2.512-1.789c7.069-2.709,8.22,13.743,8.22,13.743s2.512-7.74,9.147-7.161,8.608,9.68,8.608,9.68,1.723-8.371,5.589-10.646c4.932-2.907,11.343-.105,10.192,15.045,0,0,6.411-6.72,8.549,2.374,0,0-.329-9.482,4.6-9.292,4.906.2,4.629,9.949,1.144,13.487.421-.4,2.762-2.545,5.116-2.736.013,0,.02-.013.026-.013a1.78,1.78,0,0,1,.861.039,3.544,3.544,0,0,1,2.348,1.519c.408-3.209,1.854-8.351,6.99-6.379,0,0-3.051-9.68,2.643-11.863s6.622,11.074,6.622,11.074,2.019-6.24,7.365-5.774,6.931,7.8,6.931,7.8,1.387-6.74,4.5-8.575c3.972-2.341,9.134-.085,8.207,12.119,0,0,4.478-4.7,6.484.579Z" transform="translate(-111.98 -143)" fill="#f7ea9f"/>
                </g>
                <g transform="matrix(1, 0, 0, 1, -46.68, -186.44)" filter="url(#Trazado_678325)">
                  <path id="Trazado_678325-2" data-name="Trazado 678325" d="M565.852,337.461a63.326,63.326,0,0,1-7.345,15.072c-19.438,29.4-67.507,30.683-107.843,15.959-.973-.355-1.94-.7-2.893-1.046a4,4,0,0,1,2.308-2.209c3.176-.927,4.767,4.1,4.767,4.1s1.059-12.316,5.294-11.784,3.314,7.549,3.314,7.549c2.913-7.286,8.871-1.92,8.871-1.92-1.729-4.347-.8-11.988,4.412-12.251s5.254,7.016,5.254,7.016c2.519-7,7.681-2.446,7.681-2.446s-.263-12.119,5.826-11.054c4.1.71,5.8,4.794,6.471,7.378q.256-.039.513-.059c.48-6.286,2.722-9.66,5.142-10.87a4.811,4.811,0,0,1,1.618-.658c5.109-1.046,6.254,6.142,6.254,6.142,1.427-7.3,7.22-3.584,7.22-3.584s-2.091-11.935,4.09-11.81c5.984.118,8.115,7.884,8.24,8.364-1.815-12.823,4.6-16.361,8.332-13.849S547,336.468,547,336.468c6.392-5.931,8.812,2,8.812,2,.217-6.464,4.143-10.548,6.9-8.292s1.269,8.246,1.269,8.246a15.874,15.874,0,0,1,1.874-.96Z" transform="translate(-210.98 -138.31)" fill="#f7ea9f"/>
                </g>
                <g transform="matrix(1, 0, 0, 1, -46.68, -186.44)" filter="url(#Trazado_678326)">
                  <path id="Trazado_678326-2" data-name="Trazado 678326" d="M434.659,383.011a8.224,8.224,0,0,0-.809-4.491c.151.046,2.361.907,2.7,5.116C435.915,383.426,435.284,383.215,434.659,383.011Z" transform="translate(-206.21 -156.72)" fill="#f7ea9f"/>
                </g>
              </g>
              <g id="Grupo_913618" data-name="Grupo 913618" transform="translate(0 109.615)">
                <g id="Grupo_913615" data-name="Grupo 913615" transform="translate(54.408 49.323)">
                  <path id="Trazado_678327" data-name="Trazado 678327" d="M300.077,393.917s-1.256-12.165,5.07-16.025c0,0-3.11,4-1.92,11.889,0,0-.046-6.5,3.071-8.6a14.367,14.367,0,0,0,.658,10.771l5.425-.329a7.369,7.369,0,0,0-2.137-5.714s3.617.2,5.754,5.879l8.792-1.151s1.48-11.672-3.288-12.744c0,0,4.682.493,5.668,7.641,0,0-2.052-13.559,3.617-15.2,0,0-3.36,2.709-.612,15.328,0,0-.132-6.859,3.242-8.917a14.657,14.657,0,0,0-.658,10.6L343.28,385.7s-.408-7.154-3.367-9.206A7.259,7.259,0,0,1,344.6,382.1s-1.23-12.021,6-11.363c0,0-6.247,1.315-2.63,15.124l-16.44,8.956L304.5,396.87l-4.432-2.959Z" transform="translate(-230.729 -370.33)" fill="url(#linear-gradient-4)"/>
                  <path id="Trazado_678328" data-name="Trazado 678328" d="M279.431,407s-1.532-4.984-5.261-5.261c0,0,3.235,2.795,2.025,6.411Z" transform="translate(-221.892 -381.085)" fill="url(#linear-gradient-5)"/>
                  <path id="Trazado_678329" data-name="Trazado 678329" d="M462.687,405.744s2.19-5.55-2.847-11.291c0,0,6.247,2.742,6.576,8.766,0,0-1.532-18.083,5.806-19.4,0,0-5.044,4.82-.769,18.741,0,0-.283-5.372,4.735-5.7,0,0-4.3,1.992-2,10.968l-11.508-2.091Z" transform="translate(-285.47 -374.949)" fill="url(#linear-gradient-6)"/>
                  <path id="Trazado_678330" data-name="Trazado 678330" d="M527.63,412.13s-.112-15.407-7.45-15.19c0,0,8-2.19,9.318,8.877,0,0-.947-14.848,4.715-16.328,0,0-3.071,3.288-.658,16.439a10,10,0,0,1,7.122-7.674s-5.372,2.426-3.834,11.514l6.03-.888a6.438,6.438,0,0,0-2.19-6.464s5.076.125,5.386,7.352c0,0-1.111-14.256,2.722-15.131,0,0-3.071,3.617,1.532,16.551l-21.588,4.491-1.1-3.551Z" transform="translate(-306.131 -376.891)" fill="url(#linear-gradient-7)"/>
                  <path id="Trazado_678331" data-name="Trazado 678331" d="M204.428,404.012s.986-7.891,3.288-8.332c0,0-3.071-1.92-4.715,5.123,0,0-.441-9.837,3.288-11.153,0,0-5.261.039-5.261,10.265,0,0,.875-7.634-5.044-8.621,0,0,3.728,2.012,2.413,8.621,0,0-.546-3.689-3.728-3.8,0,0,3.4,2.19,1.315,7.016l8.437.875Z" transform="translate(-194.67 -376.946)" fill="url(#linear-gradient-8)"/>
                </g>
                <g id="Grupo_913616" data-name="Grupo 913616" transform="translate(212.969)">
                  <path id="Trazado_678332" data-name="Trazado 678332" d="M561.621,351.637s4.044,15.006,6.392,20.878S565.922,388.047,565.4,390s-5.872,6.786-5.872,8.095h5.484a2.685,2.685,0,0,0,2.091-2.742s2.091.263,2.611-3.788,1.177-7.437,3.13-10.179,3.262-3.913,3.262-9.265S566.06,348.5,566.06,348.5l-4.439,3.13Z" transform="translate(-478.166 -313.532)" fill="url(#linear-gradient-9)"/>
                  <path id="Trazado_678333" data-name="Trazado 678333" d="M484.71,360.72s4.307,14.618,8.22,24.37,5.741,12.362,5.09,14.842.132,3.262.132,3.262h4.307s2.216-.914,1.046-2.611,1.729-2.216.342-3.393-3.347-.914-4.261-7.306-.395-6.655-3.656-12.4.395-15.788.395-15.788l-11.613-.973Z" transform="translate(-452.546 -317.716)" fill="url(#linear-gradient-10)"/>
                  <path id="Trazado_678334" data-name="Trazado 678334" d="M546.373,341.384a5.127,5.127,0,0,1,.263,5.09c-1.263,3.025-.579,4.222-.526,4.3-.125-.059-5.557-2.841-1.558-8.871a23.023,23.023,0,0,0,3.018-13.579c-1.118,4.531-3.715,8.062-5.241,10.442-3,4.7-1.821,9.66,0,13.836s-3.518,6.26-3,15.137-1.7,9.785-1.7,9.785a3.6,3.6,0,0,1-1.585,3.788h-6.115c-.263-2.874,1.96-4.57,3.788-7.174s4.176-14.618,0-20.622-9.009-18.4-9.009-18.4a40.7,40.7,0,0,1-40.283,8.568c-.263,3.13,0,23.929,0,27.842s-3.13,4.781-2,6.26a1.607,1.607,0,0,1-.612,2.44H475.21c-.783-1.309,3.913-5.307,4.873-11.4s-5.616-25.889-5.616-25.889-4.57-1.565-9.916-7.825-11.225-12.665-11.225-12.665L446.3,304.514l-.283-.717s1.7-7.437,4.176-8.351,3.656,3.525,14.092,4.57,13.835,8.226,13.835,8.226c1,.171,2.019.329,3.064.473h.039a105.271,105.271,0,0,0,24.692.171c5.668-.592,14.7-3.446,22.936-3.446a23.472,23.472,0,0,1,8.384,1.348s11.613,3.8,12.27,16.722-3.137,17.88-3.137,17.88Z" transform="translate(-439.298 -295.323)" fill="url(#linear-gradient-11)"/>
                  <path id="Trazado_678335" data-name="Trazado 678335" d="M481.177,308.709c-.414-.026-4.07-.309-14.934-3.354-11.587-3.242-14.973-.349-14.973-.349l-4.978-.493-.283-.717s1.7-7.437,4.176-8.351,3.656,3.525,14.092,4.57,13.836,8.226,13.836,8.226c1,.171,2.019.329,3.064.473Z" transform="translate(-439.294 -295.323)" fill="url(#linear-gradient-12)"/>
                  <path id="Trazado_678336" data-name="Trazado 678336" d="M440.553,307a10.108,10.108,0,0,0-2.676,8.549c.783,5.353,2.091,9.851.98,12.461s-1.177,4.373,0,6.523,3.262,3.978,5.287,2.15.651-3.978,2.545-6.918,4.827-2.742,5.806-9.068a21.454,21.454,0,0,0-1.762-11.744s4.827-1.046,4.7-4.11a17,17,0,0,1,0-3.459,5.058,5.058,0,0,0-4.9,1.894c-1.894,2.545-2.676,2.025-2.676,2.025a4.409,4.409,0,0,0-5.287-1.243,4.026,4.026,0,0,0-1.631-3.13c-1.762-1.5-3.788-3.656-4.439-3s-2.348,8.812,4.044,9.068Z" transform="translate(-435.797 -296.176)" fill="#fff"/>
                </g>
                <g id="Grupo_913617" data-name="Grupo 913617" transform="translate(0 6.091)">
                  <path id="Trazado_678337" data-name="Trazado 678337" d="M129.547,312.45a19.931,19.931,0,0,0-9.3,10.646c-2.906,7.72-1.7,18.044-1.7,18.044s-3.406,3.11-3.61,6.411a3.971,3.971,0,0,0-2.006,3.11c-.1,2.1.3,4.813-1,6.115,0,0,6.017-.9,6.214-6.313,0,0,4.287-2.1,2.6-8.522,0,0-1.69-10.922,1.815-14.934S128.172,323,128.172,323l1.381-10.548Z" transform="translate(-111.93 -307.278)" fill="url(#linear-gradient-13)"/>
                  <path id="Trazado_678338" data-name="Trazado 678338" d="M293.485,372s.7-.552,2.052.5,2.157.454,2.354.855-3.906,3.761-6.365,2.657l-1.506-1.966s1.4-2.545,3.459-2.045Z" transform="translate(-172.912 -327.621)" fill="url(#linear-gradient-14)"/>
                  <path id="Trazado_678339" data-name="Trazado 678339" d="M275.944,347.048s-4.511-8.121-8.266-13.382S249.108,316,243.545,312.919s-8.345-.454-8.345-.454L268.8,349.4Z" transform="translate(-154.14 -306.925)" fill="url(#linear-gradient-15)"/>
                  <path id="Trazado_678340" data-name="Trazado 678340" d="M221.315,360.37s.3,7.72,0,12.382-.526,6.839-.526,6.839a53.781,53.781,0,0,0-2.407,12.178s-1.953,4.136-.677,4.287,4.813,0,4.813,0,1.8.375,0-3.906c0,0,.526-7.293,1.953-10.673s3.735-6.1,4.209-7.365c2.071-5.543,3.906-7.74,3.906-7.74l-11.277-5.991Z" transform="translate(-148.001 -323.687)" fill="url(#linear-gradient-16)"/>
                  <path id="Trazado_678341" data-name="Trazado 678341" d="M140.546,373.75s-2.6,5.109-1.7,9.522,3.005,11.277,2.709,14.881c0,0,1.651,1.657.75,2.558s-5.859.375-5.859.375.6-2.683-.506-13.106,4.61-14.23,4.61-14.23Z" transform="translate(-120.102 -328.268)" fill="url(#linear-gradient-17)"/>
                  <path id="Trazado_678342" data-name="Trazado 678342" d="M236.785,350.343a9.013,9.013,0,0,1,0,8.8s-.487,4.958.585,7.141,2.091,6.839.243,7.74a3.113,3.113,0,0,1-3.156-.072s.75.9-.829,1.729-3.906-1.729-4.583-2.63a76,76,0,0,0-5.714-6.464c-2.558-2.558-2.933-5.261-2.854-9.4S213.934,340.5,208,340.5c0,0-2.854,1.8-3.308,3.834s3.781,13.454,3.183,17.866a68.669,68.669,0,0,0,3.209,8.016c1.4,2.6,3.209,6.115,2.308,7.115s-4.813.5-4.813.5-1-.8,0-2.6a4.346,4.346,0,0,1-1.1-2.2,26.22,26.22,0,0,0-3.906-11.725c-2.308-3.308-3.308-5.912-5.109-10.521s-4.912-8.621-14.631-8.621-23.554,2.709-33.793-5.635c0,0-7.3,12.448-10.8,16.361s-4.11,6.813-3.709,9.923,1.4,8.72.4,11.324c0,0,1.2,1.7.8,2.709s-4.412.4-4.412.4-2.308-.1.5-3.406c0,0-.8,0-.3-1.6s-.5-5.215-2.006-10.324-.2-7.819,1.8-12.231.2-11.725-1.4-18.945-1.6-17.242,8.121-23.653,30.768,1.8,41.592,0,14.335-1.4,23.055,4.708,22.851,21.148,25.856,24.857,4.412,9.324,4.412,9.324a8.738,8.738,0,0,1,3.209-.9c2.505-.4,3.61-2.006,4.011-1.506s-1.6,7.069-4.36,6.793Z" transform="translate(-118.065 -304.585)" fill="#fff"/>
                </g>
              </g>
            </g>
          </g>
        </g>
        <g id="Grupo_913624" data-name="Grupo 913624" transform="translate(25.532 -1.422)">
          <g transform="matrix(1, 0, 0, 1, -15, -8.34)" filter="url(#Trazado_678344)">
            <path id="Trazado_678344-2" data-name="Trazado 678344" d="M204.836,138.856H112.9a13.474,13.474,0,0,1,18.586-12.471,20.079,20.079,0,0,1,37.662-6.652,12.911,12.911,0,0,1,19.058,9.587,13.43,13.43,0,0,1,16.629,9.541Z" transform="translate(-73.88 -69.83)" fill="url(#linear-gradient-18)"/>
          </g>
          <g id="Grupo_913623" data-name="Grupo 913623" transform="translate(235.514)">
            <circle id="Elipse_7119" data-name="Elipse 7119" cx="15.686" cy="15.686" r="15.686" transform="translate(2.588 24.768) rotate(-45)" fill="url(#linear-gradient-19)"/>
            <g id="Grupo_913622" data-name="Grupo 913622">
              <path id="Trazado_678345" data-name="Trazado 678345" d="M511.476,64.131l4.182-8.061,4.031,8.061a9.118,9.118,0,0,0-8.219,0Z" transform="translate(-490.81 -56.07)" fill="url(#linear-gradient-20)"/>
              <path id="Trazado_678346" data-name="Trazado 678346" d="M497.788,70.779l-.408-9.069,7.525,4.963A9.124,9.124,0,0,0,497.788,70.779Z" transform="translate(-484.927 -58.425)" fill="url(#linear-gradient-21)"/>
              <path id="Trazado_678347" data-name="Trazado 678347" d="M486.657,84.874,481.77,77.22l9,.536a9.105,9.105,0,0,0-4.106,7.118Z" transform="translate(-478.409 -64.901)" fill="url(#linear-gradient-22)"/>
              <path id="Trazado_678348" data-name="Trazado 678348" d="M484.061,99.763,476,95.581l8.061-4.031a9.118,9.118,0,0,0,0,8.219Z" transform="translate(-476 -70.884)" fill="url(#linear-gradient-23)"/>
              <path id="Trazado_678349" data-name="Trazado 678349" d="M490.709,113.948l-9.069.408,4.963-7.525A9.124,9.124,0,0,0,490.709,113.948Z" transform="translate(-478.355 -77.264)" fill="url(#linear-gradient-24)"/>
              <path id="Trazado_678350" data-name="Trazado 678350" d="M504.8,124.022l-7.654,4.887.536-9a9.106,9.106,0,0,0,7.118,4.106Z" transform="translate(-484.831 -82.725)" fill="url(#linear-gradient-25)"/>
              <path id="Trazado_678351" data-name="Trazado 678351" d="M519.693,127.29l-4.182,8.061-4.031-8.061a9.118,9.118,0,0,0,8.219,0Z" transform="translate(-490.814 -85.807)" fill="url(#linear-gradient-26)"/>
              <path id="Trazado_678352" data-name="Trazado 678352" d="M533.878,119.92l.408,9.069-7.525-4.963a9.124,9.124,0,0,0,7.118-4.106Z" transform="translate(-497.194 -82.73)" fill="url(#linear-gradient-27)"/>
              <path id="Trazado_678353" data-name="Trazado 678353" d="M543.952,106.84l4.887,7.654-9-.536a9.106,9.106,0,0,0,4.106-7.118Z" transform="translate(-502.655 -77.268)" fill="url(#linear-gradient-28)"/>
              <path id="Trazado_678354" data-name="Trazado 678354" d="M547.22,91.546l8.061,4.182-8.061,4.031a9.118,9.118,0,0,0,0-8.219Z" transform="translate(-505.737 -70.88)" fill="url(#linear-gradient-29)"/>
              <path id="Trazado_678355" data-name="Trazado 678355" d="M539.85,77.858l9.069-.408-4.963,7.525A9.124,9.124,0,0,0,539.85,77.858Z" transform="translate(-502.66 -64.997)" fill="url(#linear-gradient-30)"/>
              <path id="Trazado_678356" data-name="Trazado 678356" d="M526.77,66.727l7.654-4.887-.536,9a9.106,9.106,0,0,0-7.118-4.106Z" transform="translate(-497.198 -58.479)" fill="url(#linear-gradient-31)"/>
            </g>
          </g>
          <g transform="matrix(1, 0, 0, 1, -15, -8.34)" filter="url(#Trazado_678357)">
            <path id="Trazado_678357-2" data-name="Trazado 678357" d="M587.254,112.988H460.9a11.856,11.856,0,0,1,11.41-8.62,12.089,12.089,0,0,1,1.683.134,14.223,14.223,0,0,1,20.934-9.774,17.353,17.353,0,0,1,1.4-1.887,13.752,13.752,0,0,1,12.482-9.727c-.064-.635-.1-1.293-.1-1.951a20.523,20.523,0,0,1,40.738-3.553,20.433,20.433,0,0,1,20.054,19.3c.524-.047,1.06-.076,1.608-.076a16.145,16.145,0,0,1,16.146,16.146Z" transform="translate(-219.18 -49.63)" fill="url(#linear-gradient-32)"/>
          </g>
          <g transform="matrix(1, 0, 0, 1, -15, -8.34)" filter="url(#Trazado_678358)">
            <path id="Trazado_678358-2" data-name="Trazado 678358" d="M159.472,163.142H71.66A12.873,12.873,0,0,1,89.414,151.23a19.179,19.179,0,0,1,35.973-6.361,12.336,12.336,0,0,1,18.2,9.156,13.046,13.046,0,0,1,3.431-.478,12.879,12.879,0,0,1,12.447,9.593Z" transform="translate(-56.66 -80.53)" fill="#fefefe"/>
          </g>
        </g>
      </g>
    </g>
  </g>
</svg>
